<svg width="18" height="18" viewBox="0 0 18 18" fill="none" xmlns="http://www.w3.org/2000/svg">
<rect width="18" height="18" fill="white"/>
<path d="M9.71405 2.1958C9.4898 1.50505 8.51255 1.50505 8.28755 2.1958L7.1483 5.7013C7.09924 5.85178 7.00381 5.98289 6.8757 6.07585C6.74758 6.1688 6.59334 6.21884 6.43505 6.2188H2.74955C2.02355 6.2188 1.72055 7.1488 2.30855 7.5763L5.29055 9.7423C5.41865 9.83542 5.51398 9.9667 5.56289 10.1173C5.61179 10.2679 5.61176 10.4302 5.5628 10.5808L4.4243 14.0863C4.1993 14.777 4.99055 15.3523 5.5778 14.9248L8.5598 12.7588C8.68797 12.6656 8.84235 12.6154 9.0008 12.6154C9.15926 12.6154 9.31364 12.6656 9.4418 12.7588L12.4238 14.9248C13.0111 15.3523 13.8023 14.7778 13.5773 14.0863L12.4388 10.5808C12.3898 10.4302 12.3898 10.2679 12.4387 10.1173C12.4876 9.9667 12.583 9.83542 12.7111 9.7423L15.6931 7.5763C16.2803 7.1488 15.9788 6.2188 15.2521 6.2188H11.5658C11.4076 6.21868 11.2536 6.16857 11.1256 6.07563C10.9976 5.98268 10.9023 5.85166 10.8533 5.7013L9.71405 2.1958Z" fill="#EEEEEE"/>
</svg>
