<svg width="14" height="13" viewBox="0 0 14 13" fill="none" xmlns="http://www.w3.org/2000/svg">
<path d="M7.63406 0.950734C7.43473 0.336734 6.56606 0.336734 6.36606 0.950734L5.3534 4.06673C5.30978 4.2005 5.22496 4.31704 5.11108 4.39967C4.9972 4.48229 4.8601 4.52677 4.7194 4.52673H1.4434C0.798064 4.52673 0.52873 5.3534 1.0514 5.7334L3.70206 7.65873C3.81593 7.74151 3.90066 7.8582 3.94414 7.99209C3.98761 8.12598 3.98758 8.27019 3.94406 8.40407L2.93206 11.5201C2.73206 12.1341 3.4354 12.6454 3.9574 12.2654L6.60806 10.3401C6.72199 10.2572 6.85922 10.2126 7.00006 10.2126C7.14091 10.2126 7.27814 10.2572 7.39206 10.3401L10.0427 12.2654C10.5647 12.6454 11.2681 12.1347 11.0681 11.5201L10.0561 8.40407C10.0125 8.27019 10.0125 8.12598 10.056 7.99209C10.0995 7.8582 10.1842 7.74151 10.2981 7.65873L12.9487 5.7334C13.4707 5.3534 13.2027 4.52673 12.5567 4.52673H9.28006C9.13948 4.52663 9.00253 4.48209 8.88878 4.39947C8.77503 4.31685 8.69031 4.20039 8.64673 4.06673L7.63406 0.950734Z" fill="#FF7F23"/>
</svg>
