<svg width="257" height="171" viewBox="0 0 257 171" fill="none" xmlns="http://www.w3.org/2000/svg">
<g clip-path="url(#clip0_7188_14271)">
<path d="M240.89 162.285L238.003 164.162L229.39 153.924L233.65 151.154L240.89 162.285Z" fill="#A0616A"/>
<path d="M242.949 165.23L234.072 171.001L233.999 170.889C233.403 169.973 233.196 168.857 233.423 167.788C233.649 166.719 234.291 165.784 235.207 165.189L236.029 162.905L239.854 162.168L240.629 161.664L242.949 165.23Z" fill="#2F2E41"/>
<path d="M191.42 167.202L187.977 167.201L186.339 153.924L191.42 153.924L191.42 167.202Z" fill="#A0616A"/>
<path d="M191.541 170.793L180.953 170.793V170.659C180.953 169.567 181.387 168.519 182.16 167.746C182.933 166.973 183.981 166.539 185.074 166.539L187.009 165.072L190.617 166.539H191.541L191.541 170.793Z" fill="#2F2E41"/>
<path d="M227.059 85.9841L196.183 86.6628L193.123 90.4874C193.123 90.4874 193.387 89.139 193.152 90.62C192.916 92.1011 186.96 121.631 188.086 122.621C189.212 123.611 185.951 130.449 185.711 130.866C185.472 131.283 182.89 151.866 185.711 153.558L186.771 160.743H191.702C191.702 160.743 196.641 155.028 195.647 153.992C194.653 152.956 197.496 149.511 197.605 147.664C197.713 145.817 198.752 137.438 197.947 136.095C197.143 134.752 196.056 129.71 198.096 127.756C200.136 125.801 209.652 101.784 209.652 101.784C209.652 101.784 212.418 129.941 212.411 132.151C212.403 135.027 214.291 133.604 214.291 136.128C214.291 136.638 220.441 149.744 224.574 153.841L233.12 160.414L237.065 157.456V153.184C237.065 153.184 233.409 145.257 232.134 143.982C230.859 142.707 226.15 138.805 226.15 137.02C226.15 135.235 223.934 134.614 225.425 132.247C226.916 129.881 226.406 128.861 225.895 127.841C225.385 126.821 226.353 85.0332 226.353 85.0332L227.059 85.9841Z" fill="#2F2E41"/>
<path d="M214.186 24.0205C219.338 24.0205 223.516 19.8444 223.516 14.6929C223.516 9.54136 219.338 5.36523 214.186 5.36523C209.033 5.36523 204.855 9.54136 204.855 14.6929C204.855 19.8444 209.033 24.0205 214.186 24.0205Z" fill="#A0616A"/>
<path d="M221.639 89.5484L224.265 81.6445L228.991 82.5145L225.917 90.7721C226.104 91.2559 226.152 91.7823 226.056 92.292C225.96 92.8017 225.724 93.2746 225.374 93.6574C225.024 94.0403 224.574 94.3179 224.075 94.4592C223.575 94.6004 223.047 94.5996 222.548 94.457C222.049 94.3143 221.6 94.0353 221.251 93.6515C220.902 93.2676 220.667 92.7941 220.573 92.2841C220.479 91.7741 220.528 91.2479 220.717 90.7646C220.905 90.2813 221.224 89.8601 221.639 89.5484Z" fill="#A0616A"/>
<path d="M167.171 74.2737L173.606 68.9844L177.141 72.2379L170.139 77.5881C170.039 78.097 169.799 78.5681 169.447 78.9484C169.094 79.3286 168.642 79.6029 168.141 79.7404C167.641 79.8779 167.113 79.8732 166.615 79.7268C166.117 79.5804 165.67 79.2982 165.324 78.9117C164.978 78.5253 164.747 78.05 164.656 77.5393C164.566 77.0286 164.619 76.5028 164.811 76.0209C165.003 75.5391 165.325 75.1202 165.742 74.8116C166.159 74.5029 166.654 74.3166 167.171 74.2737Z" fill="#A0616A"/>
<path d="M203.014 13.0617C204.02 13.3739 204.989 13.5579 205.643 12.7331C206.298 11.9082 206.127 10.965 207.1 10.5673C207.913 10.2946 208.8 10.3356 209.585 10.6824C209.726 10.7349 209.864 10.7941 209.999 10.8532C210.075 10.7875 210.15 10.7251 210.232 10.6659C210.851 10.2262 211.614 10.0404 212.366 10.1467C211.817 10.4119 211.365 10.843 211.074 11.3791C211.343 11.5138 211.616 11.6485 211.892 11.7636C213.053 12.2381 214.308 12.4359 215.558 12.3412C216.808 12.2465 218.019 11.862 219.095 11.218C218.017 14.0574 218.855 15.0696 220.436 17.6626L220.498 17.8137C220.341 17.1335 222.408 16.348 222.408 17.3339C222.317 18.344 222.096 19.3382 221.751 20.2917C223.779 17.2386 224.976 13.6664 224.19 10.2387C224.022 9.51898 223.947 8.7467 223.49 8.16172C223.033 7.58005 222.191 7.23826 221.527 7.56689C221.445 6.45233 221.062 5.3809 220.419 4.4665C219.777 3.5521 218.898 2.82892 217.877 2.37384C216.856 1.91875 215.731 1.74877 214.621 1.88198C213.511 2.01518 212.458 2.44658 211.574 3.13032C210.752 3.76458 210.104 4.59604 209.371 5.33547C208.638 6.07492 207.77 6.74859 206.745 6.93263C206.094 7.04766 205.361 6.97864 204.841 7.38945C204.24 7.86597 204.233 8.70399 204.237 9.50915C204.825 9.49236 205.405 9.65139 205.903 9.96594C205.294 9.98126 204.705 10.1883 204.22 10.5575C204.211 10.5633 204.202 10.5699 204.194 10.5772C204.016 11.9312 204.089 12.2171 203.014 13.0617Z" fill="#2F2E41"/>
<path d="M235.841 43.6355C235.623 42.5951 235.194 41.6107 234.578 40.744C233.963 39.8774 233.175 39.1471 232.264 38.5989C232.196 38.2508 232.075 38.0281 231.89 37.9622C229.238 37.0197 221.835 32.6655 221.835 32.6655L221.214 27.6865L207.818 27.043L204.389 32.6655C204.389 32.6655 195.51 33.5578 195.674 36.8077C193.524 39.4893 183.951 51.4717 178.213 59.3957C175.471 63.183 173.603 66.0442 173.843 66.518C174.651 68.1136 173.516 67.0371 172.247 67.3254C170.978 67.6137 171.593 68.3634 171.622 69.4687C171.651 70.5741 167.286 72.9 167.286 72.9C169.949 73.8516 173.285 77.7636 173.285 77.7636C173.285 77.7636 176.516 74.3612 177.102 74.0056C177.689 73.65 178.016 73.131 179.871 72.487C181.727 71.8431 180.948 71.3529 181.083 69.9881C181.217 68.6232 181.669 69.6325 184.274 68.3734C186.88 67.1144 184.765 67.5949 185.486 65.8744C186.207 64.1539 185.976 65.0959 188.322 63.6734C189.732 62.8184 191.133 61.5628 193.081 59.3957C194.375 57.9574 195.909 56.1183 197.85 53.7257C197.863 53.7095 197.876 53.6925 197.889 53.6763C198.019 55.6158 198.12 57.5561 198.179 59.3957C198.349 64.6228 198.187 69.0303 197.426 70.244C196.358 71.9476 194.55 77.6489 193.08 82.6545C192.795 83.6253 192.745 84.6496 192.933 85.6436C193.122 86.6375 193.543 87.5726 194.163 88.3722C194.783 89.1718 195.583 89.8131 196.499 90.2433C197.415 90.6736 198.419 90.8807 199.431 90.8475C208.549 90.5469 221.892 89.8515 224.492 88.3259C225.907 88.528 227.304 88.8352 228.673 89.2446C228.673 89.2446 229.593 84.6446 229.9 84.0313C230.207 83.4179 230.207 82.8046 231.434 81.2712C232.661 79.7379 231.74 79.7379 231.127 78.5112C230.513 77.2845 231.434 77.8979 232.967 75.4445C234.501 72.9911 232.967 74.5245 232.661 72.6844C232.354 70.8444 232.661 71.7644 233.888 69.3111C234.904 67.2782 235.5 64.611 236.198 59.3957C236.342 58.3169 236.491 57.1317 236.648 55.8176C237.169 51.4766 236.51 46.8407 235.841 43.6355Z" fill="#6C63FF"/>
<path d="M89.2939 163.605C89.0894 163.615 88.887 163.561 88.7141 163.452C88.5411 163.342 88.406 163.182 88.3271 162.993C88.2481 162.805 88.2291 162.596 88.2726 162.396C88.3161 162.196 88.4201 162.014 88.5704 161.875L88.6388 161.604C88.6298 161.582 88.6207 161.56 88.6116 161.538C88.4056 161.052 88.0605 160.637 87.6195 160.346C87.1784 160.055 86.6613 159.901 86.1329 159.903C85.6045 159.905 85.0886 160.063 84.6497 160.357C84.2109 160.651 83.8688 161.069 83.6664 161.557C82.8576 163.504 81.8279 165.455 81.5743 167.514C81.4627 168.424 81.5098 169.347 81.7136 170.241C79.8139 166.098 78.8274 161.595 78.8211 157.038C78.8207 155.894 78.8842 154.752 79.0115 153.615C79.1166 152.683 79.2625 151.758 79.449 150.84C80.4672 145.857 82.6533 141.186 85.8278 137.211C87.3642 136.373 88.6067 135.084 89.3879 133.518C89.6709 132.955 89.8709 132.354 89.9818 131.734C89.8085 131.757 89.3283 129.118 89.459 128.956C89.2174 128.59 88.7851 128.408 88.5213 128.05C87.2094 126.272 85.4019 126.582 84.4583 128.999C82.4425 130.016 82.423 131.703 83.6598 133.325C84.4467 134.357 84.5549 135.754 85.2453 136.859C85.1743 136.95 85.1004 137.038 85.0294 137.129C83.7309 138.798 82.5991 140.59 81.6504 142.48C81.8811 140.363 81.6057 138.221 80.8469 136.231C80.0779 134.376 78.6364 132.814 77.3671 131.211C75.8423 129.285 72.7157 130.125 72.4471 132.567C72.4445 132.59 72.442 132.614 72.4395 132.638C72.628 132.744 72.8126 132.857 72.9932 132.976C73.22 133.128 73.3958 133.344 73.4975 133.597C73.5992 133.85 73.622 134.128 73.563 134.395C73.504 134.661 73.3659 134.903 73.1668 135.09C72.9677 135.276 72.7169 135.398 72.4472 135.44L72.4196 135.444C72.4868 136.123 72.6055 136.797 72.7748 137.458C71.1463 143.754 74.662 146.047 79.682 146.15C79.7928 146.207 79.9008 146.264 80.0116 146.318C79.0584 149.018 78.4605 151.831 78.2329 154.686C78.1041 156.37 78.1117 158.062 78.2557 159.745L78.2471 159.685C77.8834 157.814 76.8848 156.125 75.42 154.905C73.2444 153.118 70.1707 152.46 67.8236 151.024C67.5741 150.864 67.2841 150.778 66.9877 150.778C66.6913 150.777 66.4008 150.861 66.1506 151.02C65.9004 151.179 65.7008 151.406 65.5755 151.674C65.4501 151.943 65.4042 152.242 65.4432 152.536C65.4463 152.556 65.4495 152.577 65.4527 152.598C65.8026 152.741 66.1433 152.905 66.4728 153.09C66.6613 153.196 66.8459 153.309 67.0265 153.428C67.2533 153.58 67.4291 153.796 67.5308 154.049C67.6324 154.303 67.6553 154.58 67.5962 154.847C67.5372 155.113 67.3991 155.355 67.2 155.542C67.001 155.728 66.7501 155.85 66.4805 155.892L66.4529 155.896C66.433 155.899 66.4159 155.902 66.3961 155.905C66.9939 157.332 67.833 158.645 68.8765 159.788C69.8947 165.284 74.268 165.805 78.9461 164.205H78.949C79.4622 166.435 80.2059 168.605 81.168 170.681H89.0953C89.1237 170.593 89.1493 170.502 89.1748 170.414C88.4411 170.46 87.7044 170.417 86.9813 170.284C87.5695 169.562 88.1576 168.835 88.7458 168.113C88.7589 168.1 88.7712 168.086 88.7827 168.071C89.0811 167.702 89.3822 167.335 89.6806 166.966L89.6807 166.965C89.6966 165.833 89.5665 164.704 89.2939 163.605Z" fill="#F2F2F2"/>
<path d="M28.3203 151.618L30.5076 153.93L40.6638 146.407L37.4357 142.996L28.3203 151.618Z" fill="#C78F8F"/>
<path d="M31.9049 152.895L29.4287 150.57L28.8206 150L22.5166 155.039L24.1565 156.771L26.0867 155.534L25.2 157.874L29.5477 162.468C29.7561 162.689 30.0294 162.837 30.3278 162.891C30.6262 162.945 30.9341 162.902 31.2065 162.769C31.4789 162.636 31.7016 162.419 31.8421 162.15C31.9826 161.881 32.0335 161.575 31.9873 161.275L31.049 155.206L32.7025 153.643L31.9049 152.895Z" fill="#2F2E41"/>
<path d="M76.3906 67.4701L75.6971 75.0387C75.6971 75.0387 74.4866 80.741 75.3248 80.2788C76.1629 79.8166 74.6602 81.8969 75.0559 83.7008C75.4517 85.5047 71.6752 98.9569 73.3857 97.5633C75.0962 96.1698 72.3972 105.797 70.6903 110.546C70.1676 112.014 69.6306 113.501 69.0901 114.976C68.9835 115.275 68.8767 115.57 68.7666 115.868C68.066 117.788 67.3654 119.679 66.6934 121.464C66.5974 121.713 66.5049 121.961 66.4125 122.207C66.4089 122.214 66.4089 122.221 66.4054 122.221C64.1935 128.041 62.2982 132.619 61.5408 133.377C61.1461 133.771 54.8841 138.293 48.5723 142.822C41.9476 147.576 35.2694 152.339 35.2694 152.339L29.0322 145.798C29.0322 145.798 29.1815 145.755 29.4625 145.67C29.9817 145.521 30.9418 145.24 32.2007 144.867C37.4492 143.32 30.7817 140.913 35.5469 139.193C36.8909 138.709 37.7871 138.332 37.9897 138.133C39.1738 136.978 40.7634 134.223 41.5137 135.378C42.264 136.534 45.6671 127.948 46.6485 127.099C47.1748 126.64 48.8923 124.496 50.3645 122.612C51.6303 120.991 52.7184 119.558 52.7184 119.558C52.7184 119.558 52.7398 118.79 52.7717 117.568C52.8181 115.758 52.8856 112.946 52.9568 110.13C52.9532 110.127 52.9532 110.127 52.9568 110.127C52.9817 109.067 53.0065 108.008 53.0315 107.002C53.0492 106.223 53.0669 105.473 53.0848 104.78C53.131 102.704 53.1629 101.133 53.1629 100.742C53.1629 99.4582 53.1629 100.457 54.1764 99.6821C54.3278 99.5633 54.4715 99.4351 54.6067 99.2982C54.8234 99.1032 55.0232 98.8903 55.2042 98.6618C55.2788 98.5019 54.813 98.7188 54.2084 98.5979C53.881 98.5322 53.5782 98.3771 53.3336 98.1499C52.0606 97.0053 53.4333 93.4858 53.4333 93.4858C50.5387 87.6982 50.7486 82.9522 52.1033 79.294C53.1163 76.669 54.7242 74.3144 56.8007 72.4152C57.591 71.6622 58.452 70.9872 59.3718 70.3993L59.4607 69.9195L60.4386 64.626C60.9586 64.3404 61.4995 64.0945 62.0565 63.8902C63.7934 63.2671 65.6571 63.0815 67.4828 63.3498C69.2973 63.6123 71.0541 64.1809 72.6782 65.0314C74.0057 65.6981 75.2515 66.5165 76.3906 67.4701Z" fill="#2F2E41"/>
<path d="M49.0791 163.41L52.2478 163.704L54.918 151.353L50.2408 150.918L49.0791 163.41Z" fill="#C78F8F"/>
<path d="M58.2053 168.252L53.4971 164.31L53.7105 162.041L52.6155 162.006L49.2231 161.896H49.2194L48.3874 161.867L46.9756 169.809L49.3545 170.03L49.9839 167.826L50.8623 170.172L52.1211 170.289L57.1599 170.758C57.2026 170.762 57.2488 170.766 57.2915 170.766C57.4918 170.766 57.6899 170.723 57.8726 170.641C58.0553 170.559 58.2184 170.439 58.3512 170.289C58.5574 170.063 58.6836 169.776 58.7102 169.471C58.7311 169.243 58.696 169.012 58.6081 168.8C58.5201 168.587 58.3819 168.399 58.2053 168.252Z" fill="#2F2E41"/>
<path d="M66.6932 121.464C65.4877 128.023 60.3848 143.402 57.2984 152.403C55.8937 156.517 54.9123 159.3 54.9123 159.3L53.3122 158.795H53.3085L50.6025 157.942L49.6175 157.629H49.6138L48.4191 157.249C48.4191 157.249 48.5578 149.904 48.572 142.823C48.5826 139.854 48.5684 136.928 48.5116 134.61C48.4475 132.083 48.3373 130.273 48.156 129.914C47.4056 128.442 48.6609 128.286 49.9873 127.916C51.3171 127.543 50.2788 126.981 49.7631 125.787C49.4148 124.99 50.101 123.928 50.5882 123.323C50.7227 123.153 50.8663 122.99 51.0185 122.836C51.0185 122.836 50.7838 122.754 50.3643 122.612C51.63 120.991 52.7182 119.558 52.7182 119.558C52.7182 119.558 52.7395 118.79 52.7715 117.568C52.8178 115.758 52.8854 112.946 52.9566 110.13C52.9529 110.127 52.9529 110.127 52.9566 110.127C52.9814 109.067 53.0062 108.008 53.0312 107.002C55.0652 108.563 57.0423 110.091 58.8345 111.506C58.8367 111.508 58.8385 111.51 58.8397 111.513C58.8409 111.515 58.8416 111.518 58.8416 111.521C63.1478 114.923 66.3803 117.653 66.8354 118.52C67.0417 118.911 66.9705 119.957 66.6932 121.464Z" fill="#2F2E41"/>
<path d="M256.644 170.998H0.355596C0.261286 170.998 0.170839 170.961 0.104151 170.894C0.0374642 170.827 0 170.737 0 170.643C0 170.548 0.0374642 170.458 0.104151 170.391C0.170839 170.325 0.261286 170.287 0.355596 170.287H256.644C256.739 170.287 256.829 170.325 256.896 170.391C256.963 170.458 257 170.548 257 170.643C257 170.737 256.963 170.827 256.896 170.894C256.829 170.961 256.739 170.998 256.644 170.998Z" fill="#E6E6E6"/>
<path d="M58.6436 54.6758L59.3099 60.8551L58.9181 68.9581L76.8703 66.8258L78.5569 54.6758L76.4077 54.6971L58.6436 54.6758Z" fill="#FFB6B6"/>
<path d="M73.9137 34.7164L67.1574 29.3839L63.6108 29.1777L58.3483 32.5482L57.0596 39.1205L54.012 46.5214L58.482 66.4942C58.482 66.4942 58.9013 67.9274 57.8026 68.0996C56.704 68.2717 56.8358 70.3843 56.8358 70.3843C56.8358 70.3843 57.0595 72.2153 55.9927 72.3765C54.9259 72.5378 52.0813 72.5378 54.5705 75.7373C57.0596 78.9368 76.7475 66.8357 76.7475 66.8357L79.607 51.8355C79.607 51.8355 85.1526 44.3891 79.1804 40.1244L73.9137 34.7164Z" fill="#6C63FF"/>
<path d="M44.4194 80.0636C44.1217 79.6922 43.909 79.2601 43.7965 78.7976C43.6839 78.3352 43.6741 77.8537 43.7678 77.3871C43.8615 76.9205 44.0564 76.48 44.3387 76.0969C44.6211 75.7137 44.984 75.397 45.402 75.1693L53.9004 46.6562L59.2144 49.3309L49.9595 76.6603C50.2957 77.3877 50.3533 78.2132 50.1214 78.9802C49.8896 79.7472 49.3843 80.4026 48.7014 80.8221C48.0185 81.2416 47.2055 81.396 46.4162 81.2562C45.627 81.1165 44.9165 80.6921 44.4194 80.0636Z" fill="#C78F8F"/>
<path d="M59.5686 32.2857C59.5686 32.2857 58.0496 31.4786 57.0106 34.9712C56.1787 37.7673 49.429 54.4218 49.3429 58.471C48.7875 58.5887 48.2869 58.8878 47.9202 59.3211C47.5535 59.7545 47.3414 60.2976 47.3174 60.8647L55.6628 61.9828C57.1211 60.7531 57.5037 59.0923 56.9394 58.5994L58.7514 53.6518L66.3108 37.9104L60.677 32.8496L59.5686 32.2857Z" fill="#6C63FF"/>
<path d="M104.161 70.6927C104.269 70.2291 104.274 69.7476 104.175 69.2819C104.077 68.8163 103.877 68.3779 103.591 67.9977C103.304 67.6175 102.938 67.3046 102.518 67.0812C102.098 66.8578 101.633 66.7292 101.158 66.7045L81.6628 44.4453L77.5273 49.3786L97.6936 70.0193C97.7051 70.8205 98.0102 71.5897 98.5511 72.181C99.0919 72.7724 99.831 73.1449 100.628 73.2279C101.425 73.3109 102.225 73.0987 102.876 72.6314C103.528 72.1642 103.985 71.4743 104.161 70.6927Z" fill="#C78F8F"/>
<path d="M69.8337 34.1616C69.8337 34.1616 70.8542 32.7771 73.3018 35.477C75.2613 37.6384 88.5513 49.7371 90.3804 53.3509C90.9321 53.2169 91.5128 53.2701 92.0309 53.5024C92.5491 53.7346 92.9752 54.1326 93.2422 54.6336L86.2011 59.2496C84.3543 58.7714 83.2909 57.4393 83.5865 56.7509L79.8126 53.0733L66.1875 42.1479L69.0782 35.1492L69.8337 34.1616Z" fill="#6C63FF"/>
<path d="M163.71 80.7411C163.147 80.5467 162.682 80.1405 162.414 79.6088C162.147 79.0772 162.097 78.4621 162.276 77.8944C162.314 77.7796 162.362 77.6681 162.418 77.5612L157.034 71.6815L159.057 67.9004L165.562 76.7521C165.987 77.021 166.312 77.4232 166.485 77.8959C166.657 78.3685 166.669 78.8851 166.517 79.3649C166.428 79.6371 166.286 79.8892 166.1 80.1066C165.914 80.324 165.686 80.5027 165.431 80.6322C165.175 80.7618 164.897 80.8398 164.611 80.8618C164.326 80.8838 164.039 80.8494 163.766 80.7604C163.747 80.7542 163.728 80.7478 163.71 80.7411Z" fill="#FFB6B6"/>
<path d="M129.19 36.081C129.012 36.9113 128.993 37.7677 129.134 38.605C129.172 38.8419 129.223 39.0764 129.288 39.3072C129.529 40.1698 129.758 40.9646 129.979 41.6818C130.109 42.1272 130.243 42.5469 130.371 42.9365C131.107 45.2109 131.683 46.4986 132.091 46.7696C132.289 46.9021 132.487 47.0235 132.68 47.142C133.667 47.7458 134.382 48.1834 133.904 49.2976C133.834 49.4569 133.752 49.61 133.657 49.7557C133.498 50.0005 133.323 50.2341 133.133 50.4548C133.024 50.5796 132.924 50.7115 132.832 50.8495C132.713 51.0257 132.662 51.1742 132.726 51.3087C132.807 51.4741 133.031 51.5564 133.512 51.5796C133.589 51.583 133.677 51.5877 133.771 51.5874C133.801 51.5894 133.833 51.5881 133.868 51.5884C133.93 51.5892 134 51.5898 134.071 51.5871C134.666 51.5757 135.434 51.8888 136.255 52.3669C138.68 53.7788 141.537 56.6205 141.572 56.6559L159.412 74.8927L159.759 74.6599L160.585 74.1054L160.871 73.9148L161.197 73.6957L162.615 72.7464L163.332 72.2674L158.731 63.8212L158.23 62.9031L157.801 62.1109L149.016 45.9823L145.527 40.4375L144.748 39.2021L141.43 33.9339C140.961 33.1885 140.35 32.5427 139.632 32.0332C138.914 31.5238 138.102 31.1608 137.244 30.9649C136.385 30.769 135.497 30.7441 134.628 30.8916C133.76 31.0391 132.93 31.3561 132.184 31.8246C132.134 31.8561 132.084 31.8884 132.034 31.9213C130.583 32.8867 129.563 34.3782 129.19 36.081Z" fill="#6C63FF"/>
<path d="M130.374 163.523L127.106 163.495L125.659 150.598L130.483 150.639L130.374 163.523Z" fill="#FFB6B6"/>
<path d="M131.241 162.016L130.387 161.959L126.906 161.721L125.786 161.646L125.765 163.982L120.545 167.523C120.287 167.698 120.092 167.951 119.988 168.245C119.884 168.539 119.877 168.858 119.967 169.156C120.058 169.454 120.241 169.716 120.491 169.902C120.741 170.089 121.044 170.19 121.355 170.193L127.852 170.246L128.99 167.942L129.406 170.26L131.86 170.281L131.241 162.016Z" fill="#2F2E41"/>
<path d="M164.786 161.136L161.662 162.096L156.389 150.237L161 148.82L164.786 161.136Z" fill="#FFB6B6"/>
<path d="M165.158 159.438L164.326 159.64L160.938 160.461L159.846 160.728L160.532 162.964L156.624 167.913C156.431 168.157 156.321 168.457 156.31 168.768C156.3 169.08 156.389 169.386 156.565 169.644C156.741 169.901 156.994 170.095 157.288 170.198C157.582 170.301 157.901 170.308 158.199 170.216L164.412 168.307L164.799 165.766L165.898 167.849L168.242 167.127L165.158 159.438Z" fill="#2F2E41"/>
<path d="M123.8 55.0762L117.563 73.1975L117.357 74.6476C115.786 76.1395 117.76 76.6309 117.02 77.0243C116.279 77.4178 115.782 78.5206 116.779 78.7176C117.777 78.9147 120.993 149.595 125.236 152.34C129.478 155.084 132.06 157.069 131.281 153.051C130.967 151.432 131.411 142.751 132.053 132.962C132.126 131.853 133.276 130.678 132.278 129.6C131.281 128.521 132.401 127.811 132.464 126.916C133.359 114.133 134.392 101.513 134.392 101.513C134.392 101.513 141.004 124.215 142.721 122.457C144.438 120.7 143.758 125.027 144.283 126.32C144.721 127.4 142.85 129.522 145.6 129.555C148.349 129.588 154.806 151.654 155.461 151.629C156.759 151.579 160.407 151.719 162.573 151.273C163.643 151.053 158.894 134.347 154.929 119.92C154.613 118.77 152.892 118.743 153.999 116.522C155.106 114.301 149.598 99.9292 150.071 99.2645C151.325 97.5003 151.803 96.7334 150.566 96.6178C149.329 96.5023 148.964 97.1807 148.897 95.4693C148.83 93.7579 148.616 89.5377 148.616 89.5377C148.616 89.5377 147.72 72.8473 141.445 63.626L140.91 58.1471L123.8 55.0762Z" fill="#2F2E41"/>
<path d="M139.383 20.4766L131.112 21.654L130.612 27.6417L126.531 34.0248C126.531 34.0248 117.458 40.4079 123.786 50.4911C121.378 59.1772 118.984 67.5074 116.701 73.0611C114.923 84.0817 130.852 85.1379 149.061 81.2376C149.061 81.2376 148.81 76.5254 147.157 74.26C145.505 71.9945 146.404 71.4999 146.404 71.4999L145.25 67.2677C145.903 61.15 143.697 60.6009 142.66 57.7744L145.808 28.4474L139.383 20.4766Z" fill="#6C63FF"/>
<path d="M99.6748 71.737C99.7624 71.1483 100.076 70.617 100.55 70.2562C101.023 69.8953 101.619 69.7335 102.21 69.805C102.33 69.8214 102.448 69.8478 102.564 69.8837L107.355 63.5117L111.445 64.8047L103.937 72.8241C103.751 73.2916 103.415 73.6844 102.982 73.9411C102.549 74.1978 102.044 74.3039 101.544 74.243C100.97 74.1675 100.45 73.8673 100.098 73.4085C99.746 72.9496 99.5906 72.3697 99.6661 71.7963C99.6687 71.7765 99.6716 71.7568 99.6748 71.737Z" fill="#FFB6B6"/>
<path d="M142.233 32.065C142.115 31.9192 141.988 31.777 141.852 31.6383C140.913 30.6706 139.704 30.0089 138.382 29.74C137.06 29.471 135.688 29.6074 134.445 30.1311C134.325 30.1807 134.203 30.2376 134.086 30.2946C129.837 32.3813 127.543 33.7713 127.266 34.4219C127.17 34.6424 127.088 34.8592 127.006 35.0689C126.928 35.2751 126.853 35.4706 126.775 35.6483C126.448 36.4091 126.071 36.882 125.111 36.6686C124.793 36.5908 124.485 36.4726 124.197 36.3168C124.066 36.2527 123.945 36.1852 123.831 36.1212C123.418 35.8938 123.12 35.7302 122.917 35.8795C122.721 36.0252 122.714 36.3949 122.892 37.2517C122.951 37.6093 122.941 37.9748 122.864 38.3288C122.629 39.3615 122.26 40.3593 121.768 41.2973C121.031 42.7676 120.202 44.1901 119.286 45.5562L110.827 57.6149L110.254 58.429L109.628 59.3214L104.636 66.4385L104.931 66.7406L106.168 68.0027L106.442 68.2836L106.691 68.5394L107.335 69.1971L107.939 69.8122L121.427 58.8272L122.931 57.6006L125.627 55.4037L131.149 50.9066L141.6 41.2369C142.26 40.6314 142.79 39.8989 143.16 39.0833C143.53 38.2678 143.731 37.386 143.751 36.4909C143.751 36.4305 143.755 36.3735 143.755 36.3131C143.759 34.7629 143.22 33.2602 142.233 32.065Z" fill="#6C63FF"/>
<path d="M134.416 20.2596C139.521 20.2596 143.659 16.1227 143.659 11.0195C143.659 5.91626 139.521 1.7793 134.416 1.7793C129.312 1.7793 125.174 5.91626 125.174 11.0195C125.174 16.1227 129.312 20.2596 134.416 20.2596Z" fill="#FFB6B6"/>
<path d="M146.665 23.8318C147.906 25.6067 148.735 27.6353 149.094 29.7705C148.095 30.4099 146.931 30.7457 145.744 30.7373C145.704 30.5819 145.664 30.4266 145.618 30.2712C145.274 29.068 144.762 27.9193 144.098 26.8587C144.189 28.0024 144.034 29.1522 143.643 30.2309C143.016 29.946 142.344 29.7727 141.658 29.7187C141.098 29.7187 140.546 29.8487 140.046 30.0985C139.465 28.1708 138.929 26.3984 138.549 25.1266C138.538 28.3146 133.864 31.0941 128.764 30.6913C128.58 30.5762 130.428 25.3338 130.249 25.2129C129.84 24.9425 129.443 24.649 129.046 24.3613C130.715 21.7832 132.528 19.021 132.218 18.6067C132.241 19.1189 130.41 21.5818 128.419 23.9067C127.313 23.0953 133.593 9.89437 130.491 8.82403C130.439 9.29015 129.754 9.29015 128.919 9.19233C128.699 8.42326 128.372 7.68904 127.947 7.01135C128.002 7.69402 127.92 8.38084 127.705 9.0312C126.881 9.03143 126.059 9.11822 125.253 9.29015C125.066 8.99678 124.861 8.71611 124.637 8.44998C124.659 8.77432 124.649 9.10003 124.608 9.4225C123.785 9.60089 123.106 9.80803 123.008 9.97494C122.363 9.73899 123.463 8.67442 123.06 8.12197C122.035 6.7409 123.555 4.72682 124.516 3.29967C126.49 0.376389 130.825 -0.636415 133.893 1.11871C134.031 0.64107 134.739 0.324585 135.648 0.111667C136.034 0.0267307 136.428 -0.0100009 136.823 0.00232411C140.737 0.0713735 146.17 3.29966 146.383 7.20702C146.401 7.59832 146.429 8.02415 146.458 8.47875C146.734 12.8522 146.395 16.8862 149.382 20.0857C150.464 21.2423 150.476 26.7206 150.061 29.5404C148.985 28.4067 148.219 23.9987 146.665 23.8318Z" fill="#2F2E41"/>
<path d="M57.4691 14.8609C56.6573 16.8823 54.3669 20.8576 54.0566 23.0261L54.1963 22.8889C54.4626 23.3438 54.7653 23.7764 55.1014 24.1826C55.7037 23.5502 56.4311 23.0501 57.2374 22.7143C56.7971 23.6174 56.5421 24.5995 56.4875 25.6027C57.3518 28.3114 61.3478 27.1051 63.689 26.8094C66.027 29.483 69.1376 30.1807 73.2108 28.6436C74.35 28.7608 75.6253 28.832 76.4236 28.159C77.2219 27.4861 76.7465 26.2398 77.176 25.2971C80.2353 18.5828 77.4119 16.1603 75.0132 13.1157C74.4853 12.4457 74.4875 11.4459 73.8451 10.8066C72.9539 9.92057 71.5877 9.64802 70.3281 9.4297C70.6553 9.44693 70.9815 9.37967 71.2751 9.23439C71.5688 9.08911 71.8201 8.87069 72.0049 8.60017C72.167 8.32763 72.2506 8.01563 72.2466 7.69857C72.2426 7.38152 72.151 7.07174 71.9821 6.80339C71.5316 6.05676 70.5955 5.62258 69.6924 5.51411C68.8027 5.45371 67.909 5.53052 67.0426 5.74184C66.4814 5.81563 65.938 5.98929 65.438 6.25459C65.2021 6.38041 65.0102 6.57523 64.8881 6.813C64.7659 7.05077 64.7192 7.32016 64.7543 7.58515C64.8296 7.82986 64.9591 8.05443 65.1333 8.24211C65.3075 8.42978 65.5218 8.57572 65.7602 8.66905C66.1238 8.82273 66.5062 8.92738 66.8974 8.98027C65.1006 8.74716 63.2754 9.06655 61.6647 9.89593C59.646 10.9724 58.2838 12.8405 57.4691 14.8609Z" fill="#2F2E41"/>
<path d="M68.3996 26.1939C72.3849 26.1939 75.6156 22.964 75.6156 18.9798C75.6156 14.9955 72.3849 11.7656 68.3996 11.7656C64.4143 11.7656 61.1836 14.9955 61.1836 18.9798C61.1836 22.964 64.4143 26.1939 68.3996 26.1939Z" fill="#C78F8F"/>
<path d="M61.4561 15.1124C61.8745 16.3766 63.0701 16.7839 64.1753 17.038C64.5237 17.1192 64.8743 17.1948 65.2281 17.2622C65.3587 17.099 65.4975 16.9391 65.6425 16.7879C66.2448 16.1555 66.9723 15.6555 67.7785 15.3196C67.4299 16.033 67.1982 16.7978 67.0923 17.5846C67.7603 17.6816 68.4321 17.7607 69.1076 17.8222C69.6791 17.9438 70.2755 17.8413 70.7735 17.5358C71.2716 17.2303 71.6332 16.7452 71.7836 16.1807C72.3985 17.186 73.1256 18.1328 74.1199 18.5322C74.6885 18.7364 75.3076 18.7532 75.8865 18.5801C76.4653 18.407 76.9735 18.053 77.3364 17.5701C77.9098 16.7824 78.3073 15.8809 78.5021 14.9264C78.7843 13.8069 78.941 12.5174 78.387 11.8071C77.9432 11.2322 77.1776 11.2219 76.4711 11.2729C74.9119 11.3925 73.3691 11.6721 71.8671 12.1074L71.74 12.3932C71.9981 10.8429 71.4382 9.35136 70.4023 8.82089C69.7035 8.46622 68.8628 8.52569 68.046 8.59763C66.9968 8.64443 65.9602 8.84485 64.9692 9.19251C63.8323 9.6297 62.8583 10.4074 62.1805 11.4192C61.4555 12.5197 61.0952 14.0207 61.4561 15.1124Z" fill="#2F2E41"/>
<path d="M71.7432 8.36848C71.672 8.34747 71.8565 8.37446 71.7925 8.37618C71.8243 8.37434 71.8559 8.36992 71.8869 8.36296C71.8922 8.36189 71.964 8.33898 71.9163 8.35583C72.0235 8.32379 72.1191 8.26142 72.1916 8.17624C72.3611 7.96668 72.4941 7.73007 72.5849 7.47634C72.6996 7.14104 72.8839 6.83378 73.1258 6.57472C73.1944 6.50579 73.2784 6.45402 73.3708 6.4236C73.4632 6.39319 73.5615 6.38498 73.6576 6.39966C73.7538 6.41434 73.8452 6.45148 73.9243 6.50808C74.0034 6.56467 74.0681 6.63911 74.113 6.72537C74.2043 7.05816 74.1731 7.41264 74.025 7.72433C73.9215 8.04149 73.7676 8.3399 73.5691 8.60804C73.2365 9.04652 72.7835 9.3788 72.2653 9.56438C71.6655 9.78217 71.0114 9.80085 70.4001 9.61766C70.3193 9.58416 70.2501 9.52791 70.2007 9.45575C70.1514 9.38359 70.1241 9.29865 70.1222 9.21126C70.1203 9.12387 70.1438 9.03781 70.19 8.96357C70.2361 8.88933 70.3029 8.83011 70.3821 8.79312L71.4016 8.37592C71.4552 8.35209 71.513 8.33906 71.5717 8.33758C71.6303 8.3361 71.6887 8.3462 71.7435 8.3673C71.7983 8.38839 71.8483 8.42008 71.8908 8.46053C71.9333 8.50099 71.9674 8.54943 71.9912 8.60307C72.0149 8.65672 72.0279 8.71452 72.0293 8.77318C72.0307 8.83183 72.0205 8.89018 71.9993 8.9449C71.9781 8.99961 71.9464 9.04962 71.9058 9.09205C71.8653 9.13448 71.8168 9.1685 71.7631 9.19218L71.7612 9.19301L70.7417 9.6102L70.7237 8.78566C70.8509 8.82238 70.9818 8.84475 71.114 8.85237C71.255 8.8665 71.3973 8.8605 71.5367 8.83455C71.6701 8.81707 71.8013 8.7851 71.9278 8.73921C72.0088 8.70962 72.0883 8.67594 72.1659 8.6383C72.1941 8.62461 72.2221 8.6104 72.2498 8.59567C72.2478 8.59674 72.3664 8.52768 72.3144 8.56012C72.4462 8.47589 72.5699 8.37954 72.6839 8.27234C72.7241 8.23434 72.7612 8.1931 72.7947 8.14904C72.8528 8.07771 72.9066 8.00305 72.956 7.92543C73.0564 7.76107 73.136 7.58485 73.1928 7.40082C73.2187 7.32348 73.2406 7.24484 73.2583 7.16523C73.2633 7.12152 73.2712 7.07821 73.282 7.03558C73.3198 6.93402 73.2748 7.09488 73.3184 7.1389L73.5063 7.27734C73.5416 7.28785 73.5788 7.29029 73.6151 7.28447C73.6515 7.27865 73.6861 7.26472 73.7163 7.24372C73.7386 7.2124 73.7337 7.2176 73.7017 7.2593C73.6645 7.3084 73.6304 7.3598 73.5997 7.4132C73.5324 7.53893 73.4714 7.66799 73.4172 7.7999C73.305 8.08042 73.1632 8.34817 72.9942 8.59859C72.8285 8.85187 72.5871 9.04642 72.3044 9.1545C72.0217 9.26258 71.712 9.27867 71.4196 9.20048C71.3099 9.15681 71.2217 9.07175 71.1741 8.96366C71.1265 8.85557 71.1234 8.73311 71.1653 8.62272C71.2101 8.51393 71.2953 8.4267 71.4031 8.37931C71.5108 8.33192 71.6327 8.32804 71.7432 8.36848Z" fill="#2F2E41"/>
</g>
<defs>
<clipPath id="clip0_7188_14271">
<rect width="257" height="171" fill="white"/>
</clipPath>
</defs>
</svg>
