<svg width="207" height="158" viewBox="0 0 207 158" fill="none" xmlns="http://www.w3.org/2000/svg">
<g clip-path="url(#clip0_8907_33356)">
<path d="M104.151 0H11.8091C8.67817 0.00354393 5.67654 1.25541 3.46268 3.48094C1.24881 5.70648 0.00351755 8.72393 0 11.8713V120.871C0.0035182 124.019 1.24881 127.036 3.46268 129.262C5.67654 131.487 8.67818 132.739 11.8091 132.743H104.151C107.282 132.739 110.284 131.487 112.498 129.262C114.711 127.036 115.957 124.019 115.96 120.871V11.8713C115.957 8.72393 114.711 5.70648 112.498 3.48094C110.284 1.25541 107.282 0.00354393 104.151 0Z" fill="#F2F2F2"/>
<path d="M104.152 3.41748H11.8099C9.58033 3.41999 7.4428 4.31146 5.86625 5.89632C4.2897 7.48117 3.40289 9.62997 3.40039 11.8713V120.871C3.4029 123.113 4.2897 125.261 5.86625 126.846C7.4428 128.431 9.58034 129.323 11.8099 129.325H104.152C106.382 129.323 108.519 128.431 110.096 126.846C111.672 125.261 112.559 123.113 112.562 120.871V11.8713C112.559 9.62999 111.672 7.4812 110.096 5.89635C108.519 4.3115 106.382 3.42002 104.152 3.41748Z" fill="white"/>
<path d="M90.2532 35.1117H43.5564C43.0348 35.1117 42.5346 34.9035 42.1658 34.5327C41.797 34.162 41.5898 33.6592 41.5898 33.1349C41.5898 32.6105 41.797 32.1077 42.1658 31.737C42.5346 31.3662 43.0348 31.158 43.5564 31.158H90.2532C90.5114 31.158 90.7671 31.2091 91.0057 31.3084C91.2443 31.4078 91.4611 31.5534 91.6437 31.737C91.8263 31.9205 91.9712 32.1385 92.07 32.3783C92.1688 32.6182 92.2197 32.8752 92.2197 33.1349C92.2197 33.3945 92.1688 33.6515 92.07 33.8914C91.9712 34.1312 91.8263 34.3491 91.6437 34.5327C91.4611 34.7163 91.2443 34.8619 91.0057 34.9613C90.7671 35.0606 90.5114 35.1117 90.2532 35.1117Z" fill="#F2F2F2"/>
<path d="M98.3648 41.7837H43.5561C43.035 41.7831 42.5353 41.5746 42.167 41.2039C41.7987 40.8333 41.5918 40.3308 41.5918 39.8068C41.5918 39.2829 41.7987 38.7804 42.167 38.4098C42.5353 38.0391 43.035 37.8305 43.5561 37.83H98.3648C98.886 37.8305 99.3856 38.0391 99.754 38.4098C100.122 38.7804 100.329 39.2829 100.329 39.8068C100.329 40.3308 100.122 40.8333 99.754 41.2039C99.3856 41.5746 98.886 41.7831 98.3648 41.7837Z" fill="#F2F2F2"/>
<path d="M90.2532 65.0122H43.5564C43.0348 65.0122 42.5346 64.804 42.1658 64.4332C41.797 64.0625 41.5898 63.5597 41.5898 63.0354C41.5898 62.5111 41.797 62.0082 42.1658 61.6375C42.5346 61.2668 43.0348 61.0585 43.5564 61.0585H90.2532C90.5114 61.0585 90.7671 61.1096 91.0057 61.209C91.2443 61.3083 91.4611 61.4539 91.6437 61.6375C91.8263 61.8211 91.9712 62.039 92.07 62.2788C92.1688 62.5187 92.2197 62.7758 92.2197 63.0354C92.2197 63.295 92.1688 63.552 92.07 63.7919C91.9712 64.0317 91.8263 64.2497 91.6437 64.4332C91.4611 64.6168 91.2443 64.7624 91.0057 64.8618C90.7671 64.9611 90.5114 65.0122 90.2532 65.0122Z" fill="#F2F2F2"/>
<path d="M98.3648 71.6842H43.5561C43.035 71.6837 42.5353 71.4751 42.167 71.1045C41.7987 70.7338 41.5918 70.2313 41.5918 69.7074C41.5918 69.1834 41.7987 68.6809 42.167 68.3103C42.5353 67.9396 43.035 67.7311 43.5561 67.7305H98.3648C98.886 67.7311 99.3856 67.9396 99.754 68.3103C100.122 68.6809 100.329 69.1834 100.329 69.7074C100.329 70.2313 100.122 70.7338 99.754 71.1045C99.3856 71.4751 98.886 71.6837 98.3648 71.6842Z" fill="#F2F2F2"/>
<path d="M90.2531 94.9126H43.5564C43.0348 94.9126 42.5346 94.7044 42.1658 94.3336C41.797 93.9629 41.5898 93.4601 41.5898 92.9357C41.5898 92.4114 41.797 91.9086 42.1658 91.5379C42.5346 91.1671 43.0348 90.9589 43.5564 90.9589H90.2531C90.5116 90.9586 90.7675 91.0095 91.0064 91.1087C91.2452 91.2079 91.4623 91.3535 91.6451 91.5371C91.828 91.7207 91.973 91.9387 92.072 92.1787C92.1709 92.4187 92.2219 92.676 92.2219 92.9357C92.2219 93.1955 92.1709 93.4528 92.072 93.6928C91.973 93.9328 91.828 94.1508 91.6451 94.3344C91.4623 94.518 91.2452 94.6636 91.0064 94.7628C90.7675 94.862 90.5116 94.9129 90.2531 94.9126Z" fill="#F2F2F2"/>
<path d="M98.3648 101.585H43.5561C43.035 101.584 42.5353 101.376 42.167 101.005C41.7987 100.634 41.5918 100.132 41.5918 99.6077C41.5918 99.0838 41.7987 98.5813 42.167 98.2107C42.5353 97.84 43.035 97.6314 43.5561 97.6309H98.3648C98.886 97.6314 99.3856 97.84 99.754 98.2107C100.122 98.5813 100.329 99.0838 100.329 99.6077C100.329 100.132 100.122 100.634 99.754 101.005C99.3856 101.376 98.886 101.584 98.3648 101.585Z" fill="#F2F2F2"/>
<path d="M33.0974 44.8125H16.5719C16.3219 44.8123 16.0822 44.7123 15.9054 44.5346C15.7286 44.3569 15.6292 44.1159 15.6289 43.8646V29.0771C15.6292 28.8258 15.7286 28.5848 15.9054 28.4071C16.0822 28.2294 16.3219 28.1294 16.5719 28.1292H33.0974C33.3474 28.1294 33.5871 28.2294 33.7639 28.4071C33.9406 28.5848 34.0401 28.8258 34.0403 29.0771V43.8646C34.0401 44.1159 33.9406 44.3569 33.7639 44.5346C33.5871 44.7123 33.3474 44.8123 33.0974 44.8125Z" fill="#E6E6E6"/>
<path d="M33.0974 74.713H16.5719C16.3219 74.7128 16.0822 74.6128 15.9054 74.4351C15.7286 74.2574 15.6292 74.0164 15.6289 73.7651V58.9776C15.6292 58.7263 15.7286 58.4853 15.9054 58.3076C16.0822 58.1299 16.3219 58.0299 16.5719 58.0297H33.0974C33.3474 58.0299 33.5871 58.1299 33.7639 58.3076C33.9406 58.4853 34.0401 58.7263 34.0403 58.9776V73.7651C34.0401 74.0164 33.9406 74.2574 33.7639 74.4351C33.5871 74.6128 33.3474 74.7128 33.0974 74.713Z" fill="#E6E6E6"/>
<path d="M33.0974 104.613H16.5719C16.3219 104.613 16.0822 104.513 15.9054 104.335C15.7286 104.158 15.6292 103.917 15.6289 103.666V88.878C15.6292 88.6267 15.7286 88.3857 15.9054 88.208C16.0822 88.0303 16.3219 87.9303 16.5719 87.9301H33.0974C33.3474 87.9303 33.5871 88.0303 33.7639 88.208C33.9406 88.3857 34.0401 88.6267 34.0403 88.878V103.666C34.0401 103.917 33.9406 104.158 33.7639 104.335C33.5871 104.513 33.3474 104.613 33.0974 104.613Z" fill="#E6E6E6"/>
<path d="M185.499 103.088L186.232 96.648L189.905 64.3562L190.637 57.9158C190.989 54.7884 190.093 51.6483 188.145 49.1843C186.197 46.7204 183.356 45.1338 180.246 44.7728L96.8989 35.1919C93.7879 34.8379 90.6643 35.7388 88.2132 37.6971C85.7622 39.6554 84.1839 42.5111 83.8247 45.6377L83.8228 45.6543L78.6883 90.7936L78.6864 90.8102C78.3342 93.9376 79.2304 97.0777 81.1785 99.5417C83.1265 102.006 85.9672 103.592 89.0774 103.953L172.425 113.534C175.536 113.888 178.659 112.987 181.111 111.029C183.562 109.071 185.14 106.215 185.499 103.088Z" fill="#E6E6E6"/>
<path d="M182.121 102.7L182.988 95.0721L186.391 65.1557L187.259 57.5277C187.51 55.3006 186.872 53.0644 185.484 51.3098C184.097 49.5551 182.074 48.4253 179.859 48.1682L96.512 38.5873C94.2966 38.3352 92.0721 38.9768 90.3267 40.3713C88.5812 41.7659 87.4573 43.7995 87.2016 46.026L87.1997 46.0426L82.0651 91.1819L82.0632 91.1986C81.8124 93.4257 82.4507 95.6619 83.8379 97.4165C85.2251 99.1711 87.2481 100.301 89.4629 100.558L172.81 110.139C175.026 110.391 177.25 109.749 178.996 108.355C180.741 106.96 181.865 104.927 182.121 102.7Z" fill="white"/>
<path d="M168.477 61.7716L122.083 56.4385C121.826 56.4093 121.578 56.3294 121.352 56.2036C121.126 56.0777 120.926 55.9083 120.766 55.705C120.605 55.5017 120.485 55.2685 120.414 55.0188C120.343 54.7691 120.321 54.5077 120.351 54.2496C120.38 53.9915 120.46 53.7418 120.585 53.5146C120.711 53.2875 120.879 53.0875 121.082 52.926C121.284 52.7644 121.516 52.6446 121.765 52.5733C122.013 52.5019 122.273 52.4806 122.53 52.5103L168.924 57.8434C169.442 57.9035 169.915 58.1677 170.239 58.578C170.563 58.9884 170.712 59.5113 170.653 60.0319C170.593 60.5524 170.331 61.0281 169.923 61.3543C169.515 61.6805 168.995 61.8306 168.477 61.7716Z" fill="#E6E6E6"/>
<path d="M175.783 69.3269L121.329 63.0674C121.072 63.0381 120.824 62.9583 120.598 62.8324C120.372 62.7066 120.172 62.5371 120.012 62.3339C119.851 62.1306 119.731 61.8974 119.66 61.6477C119.589 61.398 119.567 61.1366 119.597 60.8785C119.626 60.6204 119.706 60.3707 119.831 60.1436C119.957 59.9165 120.125 59.7164 120.328 59.5549C120.53 59.3934 120.762 59.2735 121.011 59.2022C121.259 59.1309 121.519 59.1095 121.776 59.1392L176.23 65.3987C176.486 65.4282 176.734 65.5082 176.96 65.6342C177.186 65.7601 177.385 65.9296 177.546 66.1328C177.706 66.3361 177.826 66.5691 177.897 66.8187C177.968 67.0683 177.989 67.3295 177.96 67.5874C177.931 67.8453 177.851 68.0949 177.726 68.3219C177.601 68.549 177.432 68.7489 177.23 68.9105C177.028 69.072 176.796 69.1919 176.547 69.2634C176.299 69.3348 176.039 69.3564 175.783 69.3269Z" fill="#E6E6E6"/>
<path d="M174.265 82.5479L93.9833 73.3194C93.4656 73.2594 92.9927 72.9951 92.6686 72.5848C92.3445 72.1744 92.1957 71.6515 92.2549 71.131C92.3141 70.6104 92.5765 70.1348 92.9844 69.8086C93.3923 69.4823 93.9123 69.3322 94.4302 69.3912L174.712 78.6197C174.969 78.649 175.217 78.7288 175.443 78.8547C175.669 78.9805 175.869 79.15 176.029 79.3533C176.19 79.5565 176.31 79.7897 176.381 80.0394C176.452 80.2891 176.474 80.5505 176.444 80.8086C176.415 81.0667 176.335 81.3164 176.21 81.5435C176.084 81.7706 175.916 81.9707 175.713 82.1322C175.511 82.2937 175.279 82.4136 175.03 82.4849C174.782 82.5562 174.522 82.5776 174.265 82.5479Z" fill="#E6E6E6"/>
<path d="M173.769 89.2063L93.2294 79.9482C92.7116 79.8881 92.2388 79.6239 91.9147 79.2136C91.5906 78.8032 91.4418 78.2803 91.501 77.7597C91.5602 77.2392 91.8226 76.7635 92.2305 76.4373C92.6383 76.1111 93.1584 75.961 93.6762 76.02L174.216 85.2781C174.734 85.3382 175.207 85.6024 175.531 86.0128C175.855 86.4231 176.004 86.946 175.944 87.4666C175.885 87.9871 175.623 88.4628 175.215 88.789C174.807 89.1152 174.287 89.2653 173.769 89.2063Z" fill="#E6E6E6"/>
<path d="M172.789 95.537L92.5068 86.3085C92.2501 86.2793 92.0015 86.1994 91.7755 86.0736C91.5494 85.9477 91.3502 85.7783 91.1893 85.575C91.0285 85.3717 90.909 85.1385 90.8378 84.8888C90.7666 84.6391 90.7451 84.3777 90.7745 84.1196C90.8038 83.8615 90.8835 83.6118 91.0089 83.3846C91.1343 83.1575 91.3031 82.9575 91.5055 82.7959C91.7078 82.6344 91.9399 82.5146 92.1884 82.4433C92.4369 82.3719 92.6969 82.3506 92.9536 82.3803L173.236 91.6088C173.753 91.6688 174.226 91.9331 174.55 92.3434C174.874 92.7538 175.023 93.2767 174.964 93.7972C174.905 94.3178 174.642 94.7934 174.234 95.1197C173.827 95.4459 173.307 95.596 172.789 95.537Z" fill="#E6E6E6"/>
<path d="M172.293 102.195L91.7529 92.9373C91.2351 92.8773 90.7622 92.6131 90.4381 92.2027C90.114 91.7924 89.9652 91.2694 90.0245 90.7489C90.0837 90.2283 90.346 89.7527 90.7539 89.4265C91.1618 89.1003 91.6818 88.9502 92.1997 89.0092L172.74 98.2673C172.996 98.2965 173.245 98.3764 173.471 98.5022C173.697 98.6281 173.896 98.7975 174.057 99.0008C174.218 99.2041 174.337 99.4372 174.409 99.687C174.48 99.9367 174.501 100.198 174.472 100.456C174.443 100.714 174.363 100.964 174.237 101.191C174.112 101.418 173.943 101.618 173.741 101.78C173.538 101.941 173.306 102.061 173.058 102.133C172.809 102.204 172.549 102.225 172.293 102.195Z" fill="#E6E6E6"/>
<path d="M110.594 64.8819L94.1756 62.9946C93.9272 62.9658 93.7004 62.8391 93.5448 62.6423C93.3893 62.4456 93.3177 62.1948 93.3458 61.9451L95.017 47.2533C95.0457 47.0037 95.1717 46.7756 95.3674 46.6193C95.5632 46.4629 95.8126 46.391 96.061 46.4192L112.48 48.3066C112.728 48.3354 112.955 48.4621 113.11 48.6588C113.266 48.8556 113.337 49.1063 113.309 49.356L111.638 64.0478C111.609 64.2975 111.483 64.5255 111.288 64.6819C111.092 64.8383 110.843 64.9102 110.594 64.8819Z" fill="#6C63FF"/>
<path d="M206.754 157.961H153.015C152.95 157.961 152.887 157.935 152.841 157.889C152.795 157.842 152.77 157.78 152.77 157.714C152.77 157.649 152.795 157.586 152.841 157.54C152.887 157.494 152.95 157.468 153.015 157.468H206.754C206.819 157.468 206.881 157.494 206.927 157.54C206.973 157.586 206.999 157.649 206.999 157.714C206.999 157.78 206.973 157.842 206.927 157.889C206.881 157.935 206.819 157.961 206.754 157.961Z" fill="#3F3D56"/>
<path d="M186.576 63.7214C186.494 64.0492 186.484 64.3912 186.547 64.7234C186.61 65.0555 186.745 65.3697 186.942 65.6438C187.139 65.918 187.393 66.1453 187.687 66.3099C187.981 66.4745 188.307 66.5724 188.642 66.5966L190.305 71.6112L193.583 71.3388L191.136 64.2904C191.139 63.7211 190.934 63.1704 190.56 62.7427C190.186 62.3151 189.67 62.0401 189.107 61.97C188.545 61.8999 187.977 62.0394 187.511 62.3622C187.044 62.685 186.712 63.1686 186.576 63.7214Z" fill="#FFB8B8"/>
<path d="M189.086 96.5601C189.471 96.9147 189.941 97.1613 190.45 97.2748C190.959 97.3883 191.489 97.3647 191.987 97.2065C192.484 97.0483 192.931 96.761 193.283 96.3737C193.634 95.9863 193.878 95.5126 193.989 95.0003L196.585 83.0432C197.029 80.9985 196.924 78.872 196.282 76.8812L193.244 67.4643C193.2 67.3291 193.128 67.205 193.032 67.1005C192.937 66.9959 192.82 66.9134 192.689 66.8585C192.559 66.8037 192.418 66.7777 192.277 66.7825C192.136 66.7874 191.997 66.8228 191.871 66.8864L189.888 67.8844C189.682 67.9877 189.52 68.1602 189.428 68.3717C189.336 68.5833 189.321 68.8205 189.385 69.0422L189.585 69.7334C191.247 75.4811 191.334 81.5735 189.837 87.3668L188.222 93.6152C188.087 94.1387 188.096 94.6893 188.248 95.2081C188.4 95.7269 188.69 96.1942 189.086 96.5601Z" fill="#6C63FF"/>
<path d="M178.698 155.381L175.893 155.381L174.559 144.504L178.699 144.504L178.698 155.381Z" fill="#FFB8B8"/>
<path d="M173.889 154.575H179.299V158H170.482C170.482 157.55 170.571 157.105 170.742 156.689C170.913 156.274 171.164 155.896 171.48 155.578C171.796 155.26 172.172 155.008 172.585 154.836C172.999 154.664 173.441 154.575 173.889 154.575Z" fill="#2F2E41"/>
<path d="M193.819 155.381L191.014 155.381L189.68 144.504L193.82 144.504L193.819 155.381Z" fill="#FFB8B8"/>
<path d="M189.01 154.575H194.42V158H185.604C185.604 157.55 185.692 157.105 185.863 156.689C186.034 156.274 186.285 155.896 186.601 155.578C186.918 155.26 187.293 155.008 187.706 154.836C188.12 154.664 188.563 154.575 189.01 154.575Z" fill="#2F2E41"/>
<path d="M185.603 78.0546C188.932 78.0546 191.63 75.3421 191.63 71.996C191.63 68.6499 188.932 65.9374 185.603 65.9374C182.274 65.9374 179.576 68.6499 179.576 71.996C179.576 75.3421 182.274 78.0546 185.603 78.0546Z" fill="#FFB8B8"/>
<path d="M164.995 111.508C165.037 111.173 165.152 110.85 165.331 110.564C165.51 110.278 165.75 110.035 166.033 109.852C166.316 109.669 166.635 109.551 166.968 109.505C167.302 109.46 167.641 109.488 167.962 109.589L171.33 105.53L174.283 106.986L169.446 112.651C169.243 113.182 168.852 113.62 168.349 113.881C167.845 114.142 167.264 114.208 166.716 114.067C166.167 113.926 165.689 113.588 165.371 113.116C165.054 112.645 164.92 112.072 164.995 111.508Z" fill="#FFB8B8"/>
<path d="M187.071 78.0544C187.978 78.0741 188.879 77.9006 189.715 77.5453C190.55 77.1901 191.302 76.661 191.92 75.9931C192.537 75.3251 193.007 74.5332 193.299 73.6696C193.591 72.8059 193.697 71.89 193.612 70.982C193.526 70.074 193.25 69.1945 192.803 68.4013C192.355 67.6081 191.745 66.9191 191.014 66.3796C190.282 65.8402 189.445 65.4624 188.558 65.2712C187.671 65.08 186.754 65.0797 185.866 65.2703C184.541 64.4614 183 63.917 181.456 64.0554C179.911 64.1939 178.384 65.1156 177.806 66.5622C177.229 68.0087 177.849 69.9155 179.285 70.5034C180.206 70.8803 181.246 70.6975 182.228 70.5455C183.211 70.3936 184.282 70.2944 185.137 70.804C185.992 71.3136 186.377 72.6801 185.611 73.3172C185.205 73.6683 184.915 74.1355 184.78 74.6564C184.645 75.1773 184.671 75.7272 184.854 76.233C185.239 77.2336 186.29 78.0374 187.071 78.0544Z" fill="#2F2E41"/>
<path d="M194.549 111.268L195.618 152.054C195.622 152.19 195.598 152.325 195.547 152.451C195.496 152.577 195.419 152.691 195.323 152.786C195.226 152.881 195.11 152.955 194.984 153.003C194.857 153.051 194.722 153.072 194.587 153.065L191.065 152.884C190.841 152.873 190.627 152.784 190.459 152.633C190.292 152.482 190.181 152.277 190.146 152.054L185.957 125.564C185.939 125.45 185.883 125.347 185.797 125.271C185.711 125.195 185.602 125.152 185.488 125.148C185.374 125.144 185.262 125.181 185.172 125.251C185.081 125.322 185.018 125.422 184.993 125.534L179.323 151.039C179.293 151.175 179.234 151.304 179.151 151.415C179.068 151.527 178.962 151.62 178.84 151.687C178.718 151.755 178.584 151.796 178.445 151.807C178.307 151.819 178.167 151.8 178.037 151.753L174.541 151.539C174.339 151.467 174.166 151.33 174.049 151.149C173.931 150.969 173.876 150.754 173.891 150.539L176.942 110.882L194.549 111.268Z" fill="#2F2E41"/>
<path d="M196.265 91.8969C196.855 85.7164 192.334 80.1261 186.173 79.6863C183.519 79.4968 179.398 79.4291 178.039 82.9267C173.947 93.4632 181.111 93.2072 178.643 102.336C176.174 111.465 173.994 111.988 177.381 112.647C180.768 113.306 195.997 117.197 195.372 110.772C194.988 106.823 195.677 98.062 196.265 91.8969Z" fill="#6C63FF"/>
<path d="M179.254 81.8549C179.74 81.6656 180.268 81.6087 180.783 81.6898C181.298 81.771 181.783 81.9873 182.189 82.3171C182.594 82.6468 182.906 83.0782 183.093 83.5678C183.279 84.0574 183.334 84.5879 183.252 85.1056L181.328 97.1905C180.999 99.2571 180.13 101.199 178.809 102.816L172.562 110.469C172.472 110.579 172.36 110.668 172.233 110.73C172.106 110.793 171.967 110.827 171.826 110.83C171.685 110.833 171.544 110.806 171.414 110.749C171.285 110.693 171.169 110.609 171.074 110.504L169.59 108.847C169.436 108.675 169.347 108.455 169.339 108.224C169.33 107.994 169.402 107.767 169.542 107.584L169.979 107.014C173.613 102.273 175.906 96.6327 176.615 90.6896L177.38 84.2797C177.444 83.7427 177.652 83.2333 177.982 82.8062C178.312 82.379 178.752 82.0502 179.254 81.8549Z" fill="#6C63FF"/>
</g>
<defs>
<clipPath id="clip0_8907_33356">
<rect width="207" height="158" fill="white"/>
</clipPath>
</defs>
</svg>
