<svg width="24" height="24" viewBox="0 0 24 24" fill="none" xmlns="http://www.w3.org/2000/svg">
<mask id="mask0_8067_19956" style="mask-type:alpha" maskUnits="userSpaceOnUse" x="0" y="0" width="24" height="24">
<rect width="24" height="24" fill="#D9D9D9"/>
</mask>
<g mask="url(#mask0_8067_19956)">
<path d="M9.24922 22L8.84922 18.8C8.63255 18.7167 8.42855 18.6167 8.23722 18.5C8.04522 18.3833 7.85755 18.2583 7.67422 18.125L4.69922 19.375L1.94922 14.625L4.52422 12.675C4.50755 12.5583 4.49922 12.4457 4.49922 12.337V11.662C4.49922 11.554 4.50755 11.4417 4.52422 11.325L1.94922 9.375L4.69922 4.625L7.67422 5.875C7.85755 5.74167 8.04922 5.61667 8.24922 5.5C8.44922 5.38333 8.64922 5.28333 8.84922 5.2L9.24922 2H14.7492L15.1492 5.2C15.3659 5.28333 15.5702 5.38333 15.7622 5.5C15.9536 5.61667 16.1409 5.74167 16.3242 5.875L19.2992 4.625L22.0492 9.375L19.4742 11.325C19.4909 11.4417 19.4992 11.554 19.4992 11.662V12.337C19.4992 12.4457 19.4826 12.5583 19.4492 12.675L22.0242 14.625L19.2742 19.375L16.3242 18.125C16.1409 18.2583 15.9492 18.3833 15.7492 18.5C15.5492 18.6167 15.3492 18.7167 15.1492 18.8L14.7492 22H9.24922ZM12.0492 15.5C13.0159 15.5 13.8409 15.1583 14.5242 14.475C15.2076 13.7917 15.5492 12.9667 15.5492 12C15.5492 11.0333 15.2076 10.2083 14.5242 9.525C13.8409 8.84167 13.0159 8.5 12.0492 8.5C11.0659 8.5 10.2366 8.84167 9.56122 9.525C8.88655 10.2083 8.54922 11.0333 8.54922 12C8.54922 12.9667 8.88655 13.7917 9.56122 14.475C10.2366 15.1583 11.0659 15.5 12.0492 15.5ZM12.0492 13.5C11.6326 13.5 11.2786 13.354 10.9872 13.062C10.6952 12.7707 10.5492 12.4167 10.5492 12C10.5492 11.5833 10.6952 11.2293 10.9872 10.938C11.2786 10.646 11.6326 10.5 12.0492 10.5C12.4659 10.5 12.8202 10.646 13.1122 10.938C13.4036 11.2293 13.5492 11.5833 13.5492 12C13.5492 12.4167 13.4036 12.7707 13.1122 13.062C12.8202 13.354 12.4659 13.5 12.0492 13.5ZM10.9992 20H12.9742L13.3242 17.35C13.8409 17.2167 14.3202 17.0207 14.7622 16.762C15.2036 16.504 15.6076 16.1917 15.9742 15.825L18.4492 16.85L19.4242 15.15L17.2742 13.525C17.3576 13.2917 17.4159 13.0457 17.4492 12.787C17.4826 12.529 17.4992 12.2667 17.4992 12C17.4992 11.7333 17.4826 11.4707 17.4492 11.212C17.4159 10.954 17.3576 10.7083 17.2742 10.475L19.4242 8.85L18.4492 7.15L15.9742 8.2C15.6076 7.81667 15.2036 7.49567 14.7622 7.237C14.3202 6.979 13.8409 6.78333 13.3242 6.65L12.9992 4H11.0242L10.6742 6.65C10.1576 6.78333 9.67855 6.979 9.23722 7.237C8.79522 7.49567 8.39089 7.80833 8.02422 8.175L5.54922 7.15L4.57422 8.85L6.72422 10.45C6.64088 10.7 6.58255 10.95 6.54922 11.2C6.51589 11.45 6.49922 11.7167 6.49922 12C6.49922 12.2667 6.51589 12.525 6.54922 12.775C6.58255 13.025 6.64088 13.275 6.72422 13.525L4.57422 15.15L5.54922 16.85L8.02422 15.8C8.39089 16.1833 8.79522 16.504 9.23722 16.762C9.67855 17.0207 10.1576 17.2167 10.6742 17.35L10.9992 20Z" fill="#666666"/>
</g>
</svg>
