<svg width="32" height="31" viewBox="0 0 32 31" fill="none" xmlns="http://www.w3.org/2000/svg">
<rect width="30.6" height="30.6" transform="translate(0.800781)" fill="white"/>
<path d="M17.3125 3.73178C16.9313 2.55751 15.27 2.55751 14.8875 3.73178L12.9507 9.69113C12.8673 9.94696 12.7051 10.1698 12.4873 10.3279C12.2695 10.4859 12.0073 10.571 11.7382 10.5709H5.47287C4.23867 10.5709 3.72357 12.1519 4.72317 12.8786L9.79257 16.5608C10.0103 16.7191 10.1724 16.9423 10.2555 17.1984C10.3387 17.4544 10.3386 17.7302 10.2554 17.9863L8.31995 23.9456C7.93745 25.1199 9.28257 26.0978 10.2809 25.3711L15.3503 21.6889C15.5682 21.5305 15.8306 21.4452 16.1 21.4452C16.3694 21.4452 16.6318 21.5305 16.8497 21.6889L21.9191 25.3711C22.9174 26.0978 24.2625 25.1212 23.88 23.9456L21.9446 17.9863C21.8614 17.7302 21.8613 17.4544 21.9445 17.1984C22.0276 16.9423 22.1897 16.7191 22.4074 16.5608L27.4768 12.8786C28.4751 12.1519 27.9626 10.5709 26.7271 10.5709H20.4605C20.1916 10.5707 19.9297 10.4855 19.7122 10.3275C19.4946 10.1695 19.3326 9.94675 19.2492 9.69113L17.3125 3.73178Z" fill="#FF7F23"/>
</svg>
