<svg width="31" height="31" viewBox="0 0 31 31" fill="none" xmlns="http://www.w3.org/2000/svg">
<rect width="30.6" height="30.6" transform="translate(0.400391)" fill="white"/>
<path d="M16.9121 3.73178C16.5309 2.55751 14.8696 2.55751 14.4871 3.73178L12.5504 9.69113C12.4669 9.94696 12.3047 10.1698 12.0869 10.3279C11.8691 10.4859 11.6069 10.571 11.3378 10.5709H5.07248C3.83828 10.5709 3.32318 12.1519 4.32278 12.8786L9.39218 16.5608C9.60994 16.7191 9.77201 16.9423 9.85515 17.1984C9.93829 17.4544 9.93824 17.7302 9.85501 17.9863L7.91956 23.9456C7.53706 25.1199 8.88218 26.0978 9.88051 25.3711L14.9499 21.6889C15.1678 21.5305 15.4302 21.4452 15.6996 21.4452C15.969 21.4452 16.2314 21.5305 16.4493 21.6889L21.5187 25.3711C22.517 26.0978 23.8622 25.1212 23.4797 23.9456L21.5442 17.9863C21.461 17.7302 21.4609 17.4544 21.5441 17.1984C21.6272 16.9423 21.7893 16.7191 22.007 16.5608L27.0764 12.8786C28.0748 12.1519 27.5622 10.5709 26.3267 10.5709H20.0601C19.7912 10.5707 19.5293 10.4855 19.3118 10.3275C19.0942 10.1695 18.9322 9.94675 18.8489 9.69113L16.9121 3.73178Z" fill="#EEEEEE"/>
</svg>
