<svg width="277" height="136" viewBox="0 0 277 136" fill="none" xmlns="http://www.w3.org/2000/svg">
<mask id="mask0_10804_19936" style="mask-type:luminance" maskUnits="userSpaceOnUse" x="0" y="0" width="277" height="136">
<path d="M0 0H277V136H0V0Z" fill="white"/>
</mask>
<g mask="url(#mask0_10804_19936)">
<path d="M152.758 104.837C210.474 104.837 257.262 102.374 257.262 99.3366C257.262 96.2989 210.474 93.8364 152.758 93.8364C95.0421 93.8364 48.2539 96.2989 48.2539 99.3366C48.2539 102.374 95.0421 104.837 152.758 104.837Z" fill="url(#paint0_linear_10804_19936)"/>
<path d="M60.9062 97.3733V92.3169" stroke="#E1E4E5" stroke-width="4"/>
<path d="M105.246 97.3733V92.3169" stroke="#E1E4E5" stroke-width="4"/>
<path d="M181.477 97.3733V92.3169" stroke="#E1E4E5" stroke-width="4"/>
<path d="M245.266 97.3733V92.3169" stroke="#E1E4E5" stroke-width="4"/>
<path d="M66.3516 97.3746V93.874" stroke="#E1E4E5" stroke-width="4"/>
<path d="M110.301 97.3746V93.874" stroke="#E1E4E5" stroke-width="4"/>
<path d="M186.922 97.3746V93.874" stroke="#E1E4E5" stroke-width="4"/>
<path d="M250.711 97.3746V93.874" stroke="#E1E4E5" stroke-width="4"/>
<path d="M55.4609 97.3746V93.874" stroke="#E1E4E5" stroke-width="4"/>
<path d="M99.8008 97.3746V93.874" stroke="#E1E4E5" stroke-width="4"/>
<path d="M176.031 97.3746V93.874" stroke="#E1E4E5" stroke-width="4"/>
<path d="M239.82 97.3746V93.874" stroke="#E1E4E5" stroke-width="4"/>
<path d="M178.118 104.221C181.101 103.213 183.687 101.066 185.197 98.3129C185.624 97.5532 185.972 96.681 185.857 95.8176C185.828 95.6414 185.784 95.4334 185.625 95.3511C185.483 95.2693 185.291 95.3142 185.13 95.3595C180.147 96.7041 174.879 98.9698 169.649 98.7307C169.409 98.727 169.17 98.7077 168.961 98.8002C168.704 98.908 168.541 99.1449 168.426 99.3986C168.03 100.222 167.687 101.781 167.817 102.708C167.976 103.812 169.043 103.972 169.98 104.209C172.651 104.888 175.455 105.122 178.118 104.221Z" fill="#F8AE9D"/>
<path d="M178.577 98.0381C178.979 97.8685 179.396 97.6992 179.827 97.6897C180.258 97.6806 180.733 97.9112 180.871 98.328C180.962 98.6168 180.878 98.9187 180.762 99.1881C180.448 99.8856 179.897 100.451 179.315 100.953C177.084 102.834 174.226 103.972 171.304 104.151C170.01 104.227 168.655 104.111 167.516 103.503C168.085 102.809 167.972 101.818 168.033 100.942C168.216 98.3751 170.403 99.3501 172.159 99.3446C174.361 99.2982 176.554 98.869 178.577 98.0381Z" fill="#F8AE9D"/>
<path d="M111.812 79.055L111.712 79.3408C111.01 81.3726 110.468 83.4705 110.244 85.6215C109.833 89.5727 110.608 94.1959 113.581 97.0655C117.544 100.892 123.902 101.483 129.07 100.572C131.185 100.202 133.177 99.3175 134.869 97.9955C136.554 99.521 138.363 101.192 139.869 102.89C142.894 101.832 145.774 100.396 148.439 98.6166C154.747 101.505 161.18 103.454 167.972 104.865C168.748 102.934 169.293 100.917 169.595 98.8579C169.648 98.5237 165.415 95.6669 164.926 95.2604C163.461 94.0256 160.408 91.2028 160.408 91.2028C160.408 91.2028 164.256 87.9259 165.939 86.3877C167.719 84.7888 169.427 83.1109 171.058 81.3591C172.404 79.9115 173.72 78.3838 174.545 76.5772C175.37 74.7864 175.674 72.6687 174.984 70.8073C172.806 65.0136 164.014 67.0501 159.931 69.0468C156.555 70.7028 153.598 73.1154 150.753 75.5614C149.605 76.5334 148.473 77.5376 147.356 78.5257C146.477 77.6187 145.505 76.4391 144.674 75.485C143.78 74.4501 142.757 73.4773 141.522 72.868C140.224 72.21 139.025 72.3035 137.64 72.1069C137.019 72.0177 136.416 71.8331 135.811 71.7282C133.997 71.3973 132.077 71.7512 130.482 72.6844C128.969 73.5709 127.74 74.6215 125.964 74.9615C123.947 75.3457 121.605 75.1187 119.583 74.8485C117.767 74.5978 115.923 74.1865 114.114 74.5422C113.362 74.6903 113.075 75.739 112.826 76.3418C112.494 77.2144 112.145 78.1184 111.812 79.055ZM127.836 12.2289C127.836 12.2289 122.953 11.4524 121.642 20.0719C120.185 29.6538 116.295 28.0775 110.117 35.8584C106.506 40.4048 110.306 48.4339 118.027 48.2748C125.749 48.1195 132.722 45.887 137.164 46.8422C141.605 47.7971 141.849 36.4213 137.467 32.9113C133.084 29.4016 142.428 19.3225 136.735 14.8342C131.041 10.3459 127.836 12.2289 127.836 12.2289Z" fill="#6D4324"/>
<path d="M98.6499 50.2364C98.2046 49.3214 98.2313 48.2584 98.3922 47.2663C99.0882 43.0086 102.072 39.4507 105.492 36.8435C108.923 34.2295 112.851 32.3637 116.461 30.0212C117.398 29.4111 118.337 28.7538 119.413 28.4244C120.489 28.0947 121.739 28.1302 122.627 28.8236C123.254 29.3105 123.617 30.0629 123.828 30.8159C124.29 32.4642 124.113 34.2094 123.83 35.881C123.478 37.9899 122.96 40.0769 122.111 42.0151C121.43 43.5785 120.321 45.1873 118.655 45.4937C118.172 47.362 117.18 49.1134 115.787 50.4532C114.194 51.9892 112.175 52.9938 110.079 53.6953C108.149 54.3431 106.037 54.766 104.095 54.1614C102.942 53.8093 101.927 53.1316 100.934 52.4403C100.048 51.8518 99.1284 51.2073 98.6499 50.2364ZM116.1 47.3971L117.239 45.5876C116.997 45.6129 116.767 45.66 116.536 45.754C115.91 46.0248 115.533 47.0104 116.1 47.3971Z" fill="#6D4324"/>
<path d="M137.223 19.8094C137.282 20.1297 137.293 20.4649 137.271 20.8476C137.142 23.0825 136.662 25.2831 135.848 27.3684C135.35 28.6054 134.742 29.8249 133.88 30.8492C133.522 31.2744 133.118 31.6673 132.589 31.8187C132.044 31.97 131.358 31.9916 130.817 31.8556C130.34 33.827 130.539 37.5484 132.241 38.9463C132.761 39.3692 133.379 39.6339 133.998 39.8667C135.204 40.3317 136.459 40.6859 137.716 40.9605C139.147 41.2694 140.707 41.5004 141.713 42.5528C141.838 42.6826 141.963 42.8599 141.913 43.0346C141.879 43.1458 141.798 43.2244 141.702 43.2869C140.91 43.9292 139.931 44.2812 138.953 44.6175C137.236 45.1976 135.474 45.6816 133.682 46.0055C131.81 46.344 129.876 46.506 127.981 46.3016C126.515 46.136 125.069 45.7628 123.738 45.1044C122.344 44.4132 120.917 43.8487 119.475 43.1885C118.255 42.6274 117.052 41.987 115.73 41.7592C116.355 40.5719 117.658 39.9058 118.955 39.5904C120.252 39.291 121.609 39.2636 122.921 39.0124C123.353 38.9232 123.786 38.818 124.157 38.5522C125.173 37.8178 124.895 36.186 124.911 35.1171L124.963 31.735C124.812 30.121 124.146 28.7703 123.562 27.2935C122.671 25.0299 122.486 22.4579 123.272 20.1403C124.057 17.8384 125.842 15.8388 128.136 15.028C130.431 14.2172 133.184 14.6737 134.946 16.36C136.062 17.4461 136.973 18.4174 137.223 19.8094Z" fill="#F8AE9D"/>
<path d="M130.169 12.6167C132.455 12.3616 134.539 13.4813 136.084 15.2169C137.383 16.6718 138.147 18.5925 138.109 20.5222C138.103 20.7978 138.072 21.0983 137.917 21.3458C137.504 21.9391 136.606 21.7209 135.934 21.4566C134.839 21.0336 134.024 20.4155 133.032 19.8942C132.04 19.3733 130.835 19.4493 129.946 18.7295C129.108 18.0361 126.229 16.5746 126.151 15.4447C126.053 14.064 128.583 12.9359 129.64 12.7063C129.792 12.6595 129.968 12.6379 130.169 12.6167Z" fill="#6D4324"/>
<path d="M123.579 15.7433C121.645 16.9902 120.738 19.1747 120.637 21.496C120.549 23.4448 121.17 25.4162 122.42 26.8876C122.598 27.0978 122.812 27.3109 123.089 27.4045C123.784 27.6037 124.342 26.8668 124.696 26.2376C125.277 25.2181 125.518 24.2242 125.958 23.1929C126.398 22.1621 127.38 21.4598 127.614 20.3405C127.825 19.2731 129.133 16.3212 128.48 15.3964C127.683 14.2642 125.01 14.9888 124.045 15.479C123.898 15.5382 123.748 15.6325 123.579 15.7433Z" fill="#6D4324"/>
<path d="M140.778 42.0591C141.084 41.9202 141.449 42.0214 141.653 42.2959C143.934 45.4898 144.815 49.4926 145.586 53.35C146.46 57.7355 147.239 62.1357 147.987 66.5352C148.031 66.7593 148.059 66.9991 147.96 67.2053C147.862 67.4111 147.636 67.5193 147.428 67.6118C146.109 68.246 144.775 68.8642 143.457 69.4984C142.035 66.2622 141.01 62.8657 140.403 59.3831C139.557 61.5242 138.029 63.3841 136.08 64.5992C137.532 66.6796 139.32 70.8396 141.064 72.6696C141.33 72.9606 142.981 72.5069 143.35 72.3852C143.579 73.0428 142.505 72.3402 142.51 73.0107C141.519 73.155 140.251 72.5614 139.232 72.4342C138.005 72.2879 136.761 72.285 135.53 72.4097C133.484 72.6341 131.496 73.2742 129.678 74.2356C128.774 74.7168 127.907 75.2637 127.084 75.8719C126.374 76.4037 124.615 77.6536 124.615 77.6536C124.486 77.7472 123.882 77.6104 123.739 77.5764C123.322 77.5056 122.902 77.4513 122.481 77.4138C121.423 77.3313 120.371 77.1928 119.328 76.9989C117.243 76.6161 115.194 76.0265 113.227 75.2146C113.038 75.068 113.713 73.6741 113.749 73.4033C113.714 73.658 109.841 73.344 109.459 73.2746C107.932 72.9639 106.386 72.7968 104.859 72.4704C105.543 66.3213 107.421 60.3818 109.265 54.4898C109.987 52.1711 110.724 49.8523 111.747 47.666C112.835 45.3366 114.241 43.1561 115.93 41.219C115.978 41.1719 116.059 41.1412 116.122 41.158C116.933 41.362 121.876 42.6337 124.336 43.5487C125.589 44.0305 126.859 44.4648 128.145 44.8991C128.653 45.0665 129.177 45.2339 129.704 45.2259C130.055 45.2153 130.407 45.1411 130.744 45.0661C134.17 44.3043 137.597 43.4789 140.778 42.0591Z" fill="#FF7F23"/>
<path d="M118.474 54.3115C118.333 55.187 118.144 56.0775 117.955 56.9523C117.496 58.9374 116.907 60.8901 116.191 62.7979C115.826 63.7498 115.444 64.6856 115.015 65.6204C114.802 66.083 114.582 66.5425 114.356 66.9989C114.241 67.2204 114.126 67.458 114.011 67.6795C113.912 67.8696 113.798 68.0433 113.699 68.2173C114.386 68.1961 117.774 68.3913 118.475 68.4498" stroke="white" stroke-width="1.376" stroke-miterlimit="10" stroke-linecap="round"/>
<path d="M118.589 69.1378C118.518 69.5861 118.431 70.0319 118.329 70.4742L118.022 71.81C117.92 72.1912 117.689 72.6665 117.684 73.0653C117.685 72.9856 120.401 72.7557 120.657 72.7275C123.485 72.4515 126.328 72.287 129.155 72.1068C130.992 71.9909 132.795 72.0344 134.63 72.0461C135.172 72.0545 135.811 72.0004 136.105 71.5581C136.35 71.1787 136.15 70.6969 136.347 70.3488C136.474 70.3828 137.953 70.7564 137.937 70.7243C137.996 71.0602 138.113 71.7639 138.461 71.9288C138.588 71.9789 138.715 71.9968 138.843 71.9986C139.035 72.0015 139.227 71.9726 139.418 71.9434C139.448 71.9434 139.477 71.9324 139.498 71.9127C139.531 71.8812 139.5 71.833 139.469 71.7847C139.034 71.1416 138.806 70.3809 138.816 69.6046C138.358 69.2946 137.9 68.9363 137.507 68.5474C137.193 68.2235 136.96 67.8049 136.613 67.5286C136.251 67.2201 135.897 67.4061 135.496 67.5118C135.032 67.6163 134.568 67.7369 134.119 67.8737C133.237 68.1475 132.354 68.4852 131.612 69.0325C131.354 69.22 131.111 69.4236 130.806 69.5146C130.518 69.606 130.199 69.6013 129.896 69.5969C128.029 69.5523 126.164 69.4602 124.316 69.2566C122.42 69.0522 121.127 69.0804 118.644 68.7079C118.643 68.7236 118.641 68.8672 118.589 69.1378Z" fill="#F8AE9D"/>
<path d="M139.141 54.1338C139.587 56.0625 139.909 58.0101 140.126 59.9977" stroke="white" stroke-width="1.376" stroke-miterlimit="10" stroke-linecap="round"/>
<path d="M176.771 50.9519L171.294 75.3791L129.703 74.747C129.725 73.3115 130.907 72.1483 132.359 72.1706L142.298 72.3216L147.251 49.849C147.406 49.1176 148.068 48.601 148.802 48.612L175.253 49.0137C176.258 49.0452 176.994 49.966 176.771 50.9519Z" fill="#6D4324"/>
<path d="M122.439 110.636C122.632 109.522 123.176 108.381 123.686 107.384C125.79 103.299 129.552 100.42 133.603 98.4391C134.021 98.238 134.439 98.037 134.872 97.8838C134.84 97.9313 134.807 97.9788 134.774 98.0421V98.0578H134.758C134.806 98.0264 134.839 97.9953 134.887 97.9638C136.524 99.4411 138.271 101.063 139.762 102.697C138.776 103.496 137.346 104.145 136.636 104.677C134.958 105.912 133.342 107.227 131.601 108.382C129.263 109.958 126.773 111.101 123.989 111.601C122.916 111.792 122.355 111.991 122.367 111.162C122.385 111.035 122.404 110.859 122.439 110.636Z" fill="#F8AE9D"/>
<path d="M125.153 107.422C126.237 105.38 127.92 103.826 129.76 102.45C131.052 101.48 132.421 100.607 133.727 99.7175C134.098 99.4678 134.826 98.7926 135.454 98.4673C136.76 99.6521 138.097 100.901 139.307 102.196C135.312 104.625 131.754 107.794 127.371 109.514C126.97 109.668 126.553 109.821 126.122 109.831C125.691 109.84 125.231 109.658 124.981 109.303C124.59 108.754 124.841 108.008 125.153 107.422Z" fill="#F8AE9D"/>
</g>
<defs>
<linearGradient id="paint0_linear_10804_19936" x1="157.215" y1="111.004" x2="157.197" y2="81.866" gradientUnits="userSpaceOnUse">
<stop stop-color="white"/>
<stop offset="1" stop-color="#EEEEEE"/>
</linearGradient>
</defs>
</svg>
