<svg width="16" height="12" viewBox="0 0 16 12" fill="none" xmlns="http://www.w3.org/2000/svg">
<path d="M0.349609 11.4754V9.80664C0.349609 9.41914 0.449609 9.07539 0.649609 8.77539C0.849609 8.47539 1.11836 8.23789 1.45586 8.06289C2.16836 7.72539 2.88411 7.45989 3.60311 7.26639C4.32161 7.07239 5.11211 6.97539 5.97461 6.97539C6.83711 6.97539 7.62786 7.07239 8.34686 7.26639C9.06536 7.45989 9.78086 7.72539 10.4934 8.06289C10.8309 8.23789 11.0996 8.47539 11.2996 8.77539C11.4996 9.07539 11.5996 9.41914 11.5996 9.80664V11.4754H0.349609ZM13.0996 11.4754V9.71289C13.0996 9.22539 12.9776 8.75964 12.7336 8.31564C12.4901 7.87214 12.1496 7.48789 11.7121 7.16289C12.2121 7.23789 12.6871 7.35339 13.1371 7.50939C13.5871 7.66589 14.0184 7.85039 14.4309 8.06289C14.8184 8.27539 15.1184 8.52239 15.3309 8.80389C15.5434 9.08489 15.6496 9.38789 15.6496 9.71289V11.4754H13.0996ZM5.97461 5.77539C5.24961 5.77539 4.63086 5.51589 4.11836 4.99689C3.60586 4.47839 3.34961 3.86289 3.34961 3.15039C3.34961 2.42539 3.60586 1.80664 4.11836 1.29414C4.63086 0.781641 5.24961 0.525391 5.97461 0.525391C6.69961 0.525391 7.31836 0.781641 7.83086 1.29414C8.34336 1.80664 8.59961 2.42539 8.59961 3.15039C8.59961 3.86289 8.34336 4.47839 7.83086 4.99689C7.31836 5.51589 6.69961 5.77539 5.97461 5.77539ZM12.4434 3.15039C12.4434 3.86289 12.1871 4.47839 11.6746 4.99689C11.1621 5.51589 10.5434 5.77539 9.81836 5.77539C9.74336 5.77539 9.64011 5.76589 9.50861 5.74689C9.37761 5.72839 9.26836 5.70664 9.18086 5.68164C9.48086 5.31914 9.70911 4.92239 9.86561 4.49139C10.0216 4.05989 10.0996 3.61289 10.0996 3.15039C10.0996 2.67539 10.0184 2.22539 9.85586 1.80039C9.69336 1.37539 9.46836 0.981641 9.18086 0.619141C9.28086 0.581641 9.38711 0.556641 9.49961 0.544141C9.61211 0.531641 9.71836 0.525391 9.81836 0.525391C10.5434 0.525391 11.1621 0.781641 11.6746 1.29414C12.1871 1.80664 12.4434 2.42539 12.4434 3.15039Z" fill="#666666"/>
</svg>
