<svg width="69" height="69" viewBox="0 0 69 69" fill="none" xmlns="http://www.w3.org/2000/svg">
<g id="location-marker">
<path id="Vector" d="M50.7639 47.889L38.5653 60.0876C38.0318 60.6216 37.3983 61.0453 36.701 61.3343C36.0037 61.6233 35.2563 61.7721 34.5014 61.7721C33.7466 61.7721 32.9992 61.6233 32.3019 61.3343C31.6046 61.0453 30.9711 60.6216 30.4376 60.0876L18.2361 47.889C15.0196 44.6724 12.8292 40.5741 11.9419 36.1126C11.0545 31.6511 11.51 27.0266 13.2509 22.824C14.9917 18.6214 17.9397 15.0293 21.722 12.5021C25.5043 9.97487 29.9511 8.62598 34.5 8.62598C39.0489 8.62598 43.4957 9.97487 47.278 12.5021C51.0603 15.0293 54.0083 18.6214 55.7491 22.824C57.49 27.0266 57.9455 31.6511 57.0582 36.1126C56.1708 40.5741 53.9804 44.6724 50.7639 47.889Z" fill="#FF7F23" stroke="#FF7F23" stroke-linecap="round" stroke-linejoin="round"/>
</g>
</svg>
