<svg width="16" height="16" viewBox="0 0 16 16" fill="none" xmlns="http://www.w3.org/2000/svg">
<path d="M6 13.3337L2.36867 11.5177C2.25795 11.4623 2.16481 11.3773 2.0997 11.272C2.03459 11.1667 2.00007 11.0454 2 10.9217V3.74566C2.00006 3.63206 2.02915 3.52037 2.0845 3.42117C2.13985 3.32198 2.21963 3.23857 2.31626 3.17886C2.4129 3.11916 2.52319 3.08513 2.63667 3.08002C2.75015 3.07491 2.86305 3.09888 2.96467 3.14966L6 4.66699M6 13.3337V4.66699M6 13.3337L10 11.3337M6 4.66699L10 2.66699M10 11.3337L13.0353 12.851C13.1369 12.9018 13.2499 12.9257 13.3633 12.9206C13.4768 12.9155 13.5871 12.8815 13.6837 12.8218C13.7804 12.7621 13.8602 12.6787 13.9155 12.5795C13.9709 12.4803 13.9999 12.3686 14 12.255V5.07899C13.9999 4.95522 13.9654 4.83391 13.9003 4.72864C13.8352 4.62338 13.7421 4.53832 13.6313 4.48299L10 2.66699M10 11.3337V2.66699" stroke="white" stroke-linecap="round" stroke-linejoin="round"/>
</svg>
