<svg width="177" height="71" viewBox="0 0 177 71" fill="none" xmlns="http://www.w3.org/2000/svg">
<path fill-rule="evenodd" clip-rule="evenodd" d="M43.1027 61.001L36.2522 67.8168C35.5573 68.5089 34.7322 69.0578 33.824 69.4324C32.9158 69.8069 31.9423 69.9997 30.9591 69.9997C29.976 69.9997 29.0025 69.8069 28.0942 69.4324C27.186 69.0578 26.3609 68.5089 25.666 67.8168L9.77374 52.0087C5.5843 47.8403 2.7313 42.5294 1.57552 36.7477C0.419739 30.9661 1.01308 24.9732 3.28052 19.5271C5.54796 14.0809 9.38765 9.42598 14.3141 6.15097C19.2046 2.89978 24.9481 1.15344 30.828 1.12821C31.798 1.04401 32.7806 1.00098 33.7739 1.00098H144.226C161.774 1.00098 176 14.4324 176 31.001C176 47.5695 161.774 61.001 144.226 61.001H43.1027Z" fill="white"/>
<path d="M43.1027 61.001V60.001C42.8384 60.001 42.5848 60.1056 42.3974 60.2921L43.1027 61.001ZM36.2522 67.8168L35.5469 67.1079L35.5465 67.1083L36.2522 67.8168ZM25.666 67.8168L26.3717 67.1083L26.3713 67.1078L25.666 67.8168ZM9.77374 52.0087L9.06841 52.7176L9.06851 52.7177L9.77374 52.0087ZM1.57552 36.7477L0.594922 36.9438H0.594922L1.57552 36.7477ZM3.28052 19.5271L2.35733 19.1427L3.28052 19.5271ZM14.3141 6.15097L13.7604 5.3182H13.7604L14.3141 6.15097ZM30.828 1.12821L30.8323 2.1282C30.8597 2.12808 30.8871 2.12683 30.9145 2.12446L30.828 1.12821ZM42.3974 60.2921L35.5469 67.1079L36.9575 68.5257L43.808 61.7099L42.3974 60.2921ZM35.5465 67.1083C34.9448 67.7076 34.2299 68.1833 33.4427 68.5079L34.2053 70.3569C35.2345 69.9324 36.1699 69.3101 36.9578 68.5254L35.5465 67.1083ZM33.4427 68.5079C32.6555 68.8326 31.8116 68.9997 30.9591 68.9997V70.9997C32.073 70.9997 33.176 70.7813 34.2053 70.3569L33.4427 68.5079ZM30.9591 68.9997C30.1067 68.9997 29.2627 68.8326 28.4755 68.5079L27.713 70.3569C28.7422 70.7813 29.8453 70.9997 30.9591 70.9997V68.9997ZM28.4755 68.5079C27.6883 68.1833 26.9735 67.7076 26.3717 67.1083L24.9604 68.5254C25.7483 69.3101 26.6837 69.9324 27.713 70.3569L28.4755 68.5079ZM26.3713 67.1078L10.479 51.2997L9.06851 52.7177L24.9608 68.5258L26.3713 67.1078ZM10.4791 51.2998C6.42985 47.2709 3.67293 42.1384 2.55612 36.5517L0.594922 36.9438C1.78967 42.9204 4.73874 48.4096 9.06841 52.7176L10.4791 51.2998ZM2.55612 36.5517C1.43932 30.965 2.0126 25.1742 4.2037 19.9114L2.35733 19.1427C0.013562 24.7722 -0.599837 30.9671 0.594922 36.9438L2.55612 36.5517ZM4.2037 19.9114C6.39483 14.6485 10.1056 10.1495 14.8677 6.98374L13.7604 5.3182C8.66966 8.70248 4.70108 13.5132 2.35733 19.1427L4.2037 19.9114ZM14.8677 6.98374C19.5951 3.84099 25.1476 2.15259 30.8323 2.1282L30.8237 0.128216C24.7487 0.154284 18.8141 1.95856 13.7604 5.3182L14.8677 6.98374ZM30.9145 2.12446C31.8557 2.04276 32.8095 2.00098 33.7739 2.00098V0.000976562C32.7517 0.000976562 31.7403 0.0452613 30.7415 0.131953L30.9145 2.12446ZM33.7739 2.00098H144.226V0.000976562H33.7739V2.00098ZM144.226 2.00098C161.277 2.00098 175 15.0381 175 31.001H177C177 13.8268 162.272 0.000976562 144.226 0.000976562V2.00098ZM175 31.001C175 46.9639 161.277 60.001 144.226 60.001V62.001C162.272 62.001 177 48.1751 177 31.001H175ZM144.226 60.001H43.1027V62.001H144.226V60.001Z" fill="#FF7F23"/>
</svg>
