<svg width="16" height="14" viewBox="0 0 16 14" fill="none" xmlns="http://www.w3.org/2000/svg">
<path d="M14.4496 6.2498V12.1561C14.4496 12.5186 14.3246 12.8248 14.0746 13.0748C13.8246 13.3248 13.5246 13.4498 13.1746 13.4498H2.84331C2.48081 13.4498 2.17456 13.3248 1.92456 13.0748C1.67456 12.8248 1.54956 12.5186 1.54956 12.1561V6.23105C1.23706 6.00605 1.00906 5.6903 0.865562 5.2838C0.721562 4.8778 0.724562 4.4498 0.874562 3.9998L1.60581 1.5623C1.70581 1.2623 1.87456 1.01855 2.11206 0.831055C2.34956 0.643555 2.63081 0.549805 2.95581 0.549805H13.0246C13.3496 0.549805 13.6308 0.637305 13.8683 0.812305C14.1058 0.987305 14.2808 1.23105 14.3933 1.54355L15.1433 3.9998C15.2933 4.4498 15.2933 4.8778 15.1433 5.2838C14.9933 5.6903 14.7621 6.0123 14.4496 6.2498ZM9.63081 5.7248C10.0558 5.7248 10.3683 5.5998 10.5683 5.3498C10.7683 5.0998 10.8496 4.83105 10.8121 4.54355L10.3621 1.5998H8.52456V4.54355C8.52456 4.85605 8.63406 5.13105 8.85306 5.36855C9.07156 5.60605 9.33081 5.7248 9.63081 5.7248ZM6.29331 5.7248C6.64331 5.7248 6.92781 5.60605 7.14681 5.36855C7.36531 5.13105 7.47456 4.85605 7.47456 4.54355V1.5998H5.63706L5.18706 4.58105C5.14956 4.84355 5.23406 5.0998 5.44056 5.3498C5.64656 5.5998 5.93081 5.7248 6.29331 5.7248ZM3.01206 5.7248C3.29956 5.7248 3.54331 5.6278 3.74331 5.4338C3.94331 5.2403 4.06831 4.99355 4.11831 4.69355L4.56831 1.5998H2.91831C2.84331 1.5998 2.78081 1.6153 2.73081 1.6463C2.68081 1.6778 2.64331 1.73105 2.61831 1.80605L1.88706 4.2248C1.77456 4.5873 1.82131 4.9278 2.02731 5.2463C2.23381 5.5653 2.56206 5.7248 3.01206 5.7248ZM13.0058 5.7248C13.4058 5.7248 13.7216 5.5718 13.9531 5.2658C14.1841 4.9593 14.2371 4.6123 14.1121 4.2248L13.3621 1.7873C13.3371 1.7248 13.2996 1.6778 13.2496 1.6463C13.1996 1.6153 13.1371 1.5998 13.0621 1.5998H11.4496L11.8996 4.69355C11.9496 4.99355 12.0746 5.2403 12.2746 5.4338C12.4746 5.6278 12.7183 5.7248 13.0058 5.7248Z" fill="#666666"/>
</svg>
