<svg width="32" height="33" viewBox="0 0 32 33" fill="none" xmlns="http://www.w3.org/2000/svg">
<g id="dots-vertical" opacity="0.8">
<path id="Vector" d="M16.0003 7.16634V7.17967M16.0003 16.4997V16.513M16.0003 25.833V25.8463M16.0003 8.49967C15.6467 8.49967 15.3076 8.3592 15.0575 8.10915C14.8075 7.8591 14.667 7.51996 14.667 7.16634C14.667 6.81272 14.8075 6.47358 15.0575 6.22353C15.3076 5.97348 15.6467 5.83301 16.0003 5.83301C16.3539 5.83301 16.6931 5.97348 16.9431 6.22353C17.1932 6.47358 17.3337 6.81272 17.3337 7.16634C17.3337 7.51996 17.1932 7.8591 16.9431 8.10915C16.6931 8.3592 16.3539 8.49967 16.0003 8.49967ZM16.0003 17.833C15.6467 17.833 15.3076 17.6925 15.0575 17.4425C14.8075 17.1924 14.667 16.8533 14.667 16.4997C14.667 16.1461 14.8075 15.8069 15.0575 15.5569C15.3076 15.3068 15.6467 15.1663 16.0003 15.1663C16.3539 15.1663 16.6931 15.3068 16.9431 15.5569C17.1932 15.8069 17.3337 16.1461 17.3337 16.4997C17.3337 16.8533 17.1932 17.1924 16.9431 17.4425C16.6931 17.6925 16.3539 17.833 16.0003 17.833ZM16.0003 27.1663C15.6467 27.1663 15.3076 27.0259 15.0575 26.7758C14.8075 26.5258 14.667 26.1866 14.667 25.833C14.667 25.4794 14.8075 25.1402 15.0575 24.8902C15.3076 24.6401 15.6467 24.4997 16.0003 24.4997C16.3539 24.4997 16.6931 24.6401 16.9431 24.8902C17.1932 25.1402 17.3337 25.4794 17.3337 25.833C17.3337 26.1866 17.1932 26.5258 16.9431 26.7758C16.6931 27.0259 16.3539 27.1663 16.0003 27.1663Z" stroke="#666666" stroke-width="2" stroke-linecap="round" stroke-linejoin="round"/>
</g>
</svg>
