<svg width="19" height="19" viewBox="0 0 19 19" fill="none" xmlns="http://www.w3.org/2000/svg">
<path d="M7.5 3.49919H2.5C1.96957 3.49919 1.46086 3.7099 1.08579 4.08497C0.710714 4.46004 0.5 4.96875 0.5 5.49919V16.4992C0.5 17.0296 0.710714 17.5383 1.08579 17.9134C1.46086 18.2885 1.96957 18.4992 2.5 18.4992H13.5C14.0304 18.4992 14.5391 18.2885 14.9142 17.9134C15.2893 17.5383 15.5 17.0296 15.5 16.4992V11.4992M14.086 2.08519C14.2705 1.89417 14.4912 1.7418 14.7352 1.63698C14.9792 1.53216 15.2416 1.47699 15.5072 1.47468C15.7728 1.47238 16.0361 1.52298 16.2819 1.62354C16.5277 1.7241 16.751 1.87261 16.9388 2.0604C17.1266 2.24818 17.2751 2.47148 17.3756 2.71728C17.4762 2.96307 17.5268 3.22643 17.5245 3.49199C17.5222 3.75755 17.467 4.01999 17.3622 4.26399C17.2574 4.508 17.105 4.72869 16.914 4.91319L8.328 13.4992H5.5V10.6712L14.086 2.08519Z" stroke="white" stroke-linecap="round" stroke-linejoin="round"/>
</svg>
