<svg width="77" height="88" viewBox="0 0 77 88" fill="none" xmlns="http://www.w3.org/2000/svg">
<g filter="url(#filter0_d_10138_17623)">
<rect x="4" width="56.9756" height="79.2317" rx="3" fill="white"/>
<rect x="4.5" y="0.5" width="55.9756" height="78.2317" rx="2.5" stroke="#666666"/>
</g>
<line x1="16.4648" y1="45.793" x2="48.5136" y2="45.793" stroke="#C4C4C4"/>
<line x1="16.4648" y1="52.9141" x2="41.3917" y2="52.9141" stroke="#C4C4C4"/>
<line x1="16.4648" y1="60.0371" x2="48.5136" y2="60.0371" stroke="#C4C4C4"/>
<path d="M28.2266 11.4178V9.10219L29.8056 8.08789L29.7069 11.4178C29.6806 11.7477 29.9373 12.1482 30.2664 12.2751L33.1955 13.5431C33.3535 13.6446 33.8867 13.7025 34.1835 13.5431L37.2766 12.3702C37.8295 12.1926 38.1432 11.6716 38.1323 11.4178V9.0078L39.4165 9.26079V12.1157L39.1203 12.8453C38.4884 13.1244 35.5658 14.2939 34.1835 14.8437C33.657 15.0213 33.1304 14.9177 32.9329 14.8437C31.9851 14.5646 29.5094 13.3007 28.4892 12.7509L28.2266 11.4178Z" fill="#FF7F23"/>
<path d="M25.0317 9.16809C24.4788 9.39648 24.2994 9.75307 24.4843 10.0841C24.7368 10.536 25.2677 10.3486 25.4762 10.3274C27.8195 9.76914 31.4166 7.88867 32.8976 7.04278C33.5934 6.60774 33.9882 6.88912 34.2227 7.04278C36.1974 8.337 39.797 9.94548 41.5084 10.6751C42.2983 11.0118 42.8527 10.9097 42.9872 10.6751C43.3118 10.1089 42.6806 9.73645 42.4642 9.63216C40.0194 8.45395 36.0242 6.52467 34.3786 5.55189C33.7467 5.3235 33.2596 5.45672 33.0951 5.55189C30.7518 6.82073 27.4343 8.17567 25.0317 9.16809Z" fill="#FF7F23"/>
<path fill-rule="evenodd" clip-rule="evenodd" d="M28.2998 18.7401C28.223 18.4123 28.2214 17.7994 28.6953 17.5711C28.9257 17.4547 29.4523 17.4315 29.7156 18.2689C29.9569 18.7765 30.7424 19.855 31.9535 20.1087C32.0413 18.8082 33.0612 16.6797 36.0364 16.6543C36.4909 16.6543 37.8759 16.7559 38.5071 18.0796C38.7557 18.601 38.8317 19.8699 37.8759 20.7042C37.1725 21.3182 36.0364 22.0079 34.1068 22.0079C32.9887 22.0079 31.9535 22.0079 30.3737 21.1562C28.7939 20.3045 28.3766 19.0679 28.2998 18.7401ZM36.2068 18.0968C35.2484 17.8941 33.3315 18.2011 33.3315 20.5485C34.1137 20.6701 35.233 20.6042 36.2068 20.0317C37.0802 19.5183 37.37 18.3428 36.2068 18.0968Z" fill="#FF7F23"/>
<path d="M23.5866 18.4314C23.6129 14.2414 26.8219 11.9318 28.423 11.3008L28.8834 12.6898C26.1987 13.9266 25.2314 16.4024 25.1656 17.4541C24.5603 21.2776 27.776 23.4531 29.3442 24.016C32.4369 25.4043 35.8038 24.8784 37.3391 24.3946C41.2346 23.2083 42.5704 20.235 42.5704 18.4314C42.5704 15.4152 40.1576 13.4516 38.9513 12.8468L39.0593 11.3008C41.1634 12.2223 42.8635 14.2884 43.4235 15.455C44.6737 18.357 43.676 21.0911 42.5704 22.5143C40.3036 25.4321 36.5266 26.2143 34.2442 26.2143C30.0423 26.2143 27.5654 24.9454 26.2551 23.8851C24.073 22.1193 23.5647 19.683 23.5866 18.4314Z" fill="#FF7F23"/>
<path d="M52.0742 54.6001L69.2856 37.3887C73.084 37.3887 73.6379 40.1583 73.4401 41.5431L56.2287 58.7545H52.0742V54.6001Z" fill="white"/>
<g clip-path="url(#clip0_10138_17623)">
<g filter="url(#filter1_d_10138_17623)">
<path d="M66.5935 40.0384L70.7907 44.2356M68.374 38.2579C68.9306 37.7014 69.6855 37.3887 70.4726 37.3887C71.2597 37.3887 72.0146 37.7014 72.5712 38.2579C73.1278 38.8145 73.4405 39.5694 73.4405 40.3565C73.4405 41.1437 73.1278 41.8986 72.5712 42.4551L56.2287 58.7976H52.0742V54.5577L68.374 38.2579Z" stroke="#666666" stroke-linecap="round" stroke-linejoin="round" shape-rendering="crispEdges"/>
</g>
</g>
<defs>
<filter id="filter0_d_10138_17623" x="0" y="0" width="64.9766" height="87.2324" filterUnits="userSpaceOnUse" color-interpolation-filters="sRGB">
<feFlood flood-opacity="0" result="BackgroundImageFix"/>
<feColorMatrix in="SourceAlpha" type="matrix" values="0 0 0 0 0 0 0 0 0 0 0 0 0 0 0 0 0 0 127 0" result="hardAlpha"/>
<feOffset dy="4"/>
<feGaussianBlur stdDeviation="2"/>
<feComposite in2="hardAlpha" operator="out"/>
<feColorMatrix type="matrix" values="0 0 0 0 0 0 0 0 0 0 0 0 0 0 0 0 0 0 0.25 0"/>
<feBlend mode="normal" in2="BackgroundImageFix" result="effect1_dropShadow_10138_17623"/>
<feBlend mode="normal" in="SourceGraphic" in2="effect1_dropShadow_10138_17623" result="shape"/>
</filter>
<filter id="filter1_d_10138_17623" x="47.5742" y="36.8887" width="30.3672" height="30.4082" filterUnits="userSpaceOnUse" color-interpolation-filters="sRGB">
<feFlood flood-opacity="0" result="BackgroundImageFix"/>
<feColorMatrix in="SourceAlpha" type="matrix" values="0 0 0 0 0 0 0 0 0 0 0 0 0 0 0 0 0 0 127 0" result="hardAlpha"/>
<feOffset dy="4"/>
<feGaussianBlur stdDeviation="2"/>
<feComposite in2="hardAlpha" operator="out"/>
<feColorMatrix type="matrix" values="0 0 0 0 0 0 0 0 0 0 0 0 0 0 0 0 0 0 0.25 0"/>
<feBlend mode="normal" in2="BackgroundImageFix" result="effect1_dropShadow_10138_17623"/>
<feBlend mode="normal" in="SourceGraphic" in2="effect1_dropShadow_10138_17623" result="shape"/>
</filter>
<clipPath id="clip0_10138_17623">
<rect width="28.4878" height="28.4878" fill="white" transform="translate(48.5117 33.8281)"/>
</clipPath>
</defs>
</svg>
