<svg width="19" height="19" viewBox="0 0 19 19" fill="none" xmlns="http://www.w3.org/2000/svg">
<path d="M8.70964 3.95826H4.7513C4.33138 3.95826 3.92865 4.12507 3.63172 4.42201C3.33478 4.71894 3.16797 5.12167 3.16797 5.54159V14.2499C3.16797 14.6699 3.33478 15.0726 3.63172 15.3695C3.92865 15.6664 4.33138 15.8333 4.7513 15.8333H13.4596C13.8796 15.8333 14.2823 15.6664 14.5792 15.3695C14.8762 15.0726 15.043 14.6699 15.043 14.2499V10.2916M13.9236 2.83884C14.0696 2.68762 14.2443 2.567 14.4375 2.48401C14.6307 2.40103 14.8384 2.35736 15.0487 2.35553C15.2589 2.3537 15.4674 2.39376 15.662 2.47337C15.8566 2.55299 16.0333 2.67055 16.182 2.81922C16.3307 2.96788 16.4482 3.14466 16.5279 3.33925C16.6075 3.53383 16.6475 3.74233 16.6457 3.95256C16.6439 4.16279 16.6002 4.37056 16.5172 4.56373C16.4342 4.75691 16.3136 4.93162 16.1624 5.07767L9.36514 11.8749H7.1263V9.63609L13.9236 2.83884Z" stroke="white" stroke-width="1.5" stroke-linecap="round" stroke-linejoin="round"/>
</svg>
