<svg width="16" height="16" viewBox="0 0 16 16" fill="none" xmlns="http://www.w3.org/2000/svg">
<path d="M2.39052 2.39052C2.14048 2.64057 2 2.97971 2 3.33333V4C2 9.52267 6.47733 14 12 14H12.6667C13.0203 14 13.3594 13.8595 13.6095 13.6095C13.8595 13.3594 14 13.0203 14 12.6667V10.4807C14 10.3407 13.956 10.2043 13.8742 10.0907C13.7923 9.97714 13.6768 9.89223 13.544 9.848L10.5487 8.84933C10.3964 8.79873 10.2311 8.80472 10.0829 8.86619C9.93473 8.92766 9.8137 9.0405 9.742 9.184L8.98867 10.6887C7.35631 9.95112 6.04888 8.64369 5.31133 7.01133L6.816 6.258C6.9595 6.1863 7.07234 6.06527 7.13381 5.9171C7.19528 5.76893 7.20127 5.60356 7.15067 5.45133L6.152 2.456C6.1078 2.3233 6.02299 2.20787 5.90957 2.12603C5.79615 2.0442 5.65986 2.00011 5.52 2H3.33333C2.97971 2 2.64057 2.14048 2.39052 2.39052Z" stroke="#222222" stroke-linecap="round" stroke-linejoin="round"/>
</svg>
