<svg width="14" height="14" viewBox="0 0 14 14" fill="none" xmlns="http://www.w3.org/2000/svg">
<path d="M1.39052 1.39052C1.14048 1.64057 1 1.97971 1 2.33333V3C1 8.52267 5.47733 13 11 13H11.6667C12.0203 13 12.3594 12.8595 12.6095 12.6095C12.8595 12.3594 13 12.0203 13 11.6667V9.48067C13 9.34069 12.956 9.20425 12.8742 9.0907C12.7923 8.97714 12.6768 8.89223 12.544 8.848L9.54867 7.84933C9.39644 7.79873 9.23107 7.80472 9.0829 7.86619C8.93473 7.92766 8.8137 8.0405 8.742 8.184L7.98867 9.68867C6.35631 8.95112 5.04888 7.64369 4.31133 6.01133L5.816 5.258C5.9595 5.1863 6.07234 5.06527 6.13381 4.9171C6.19528 4.76893 6.20127 4.60356 6.15067 4.45133L5.152 1.456C5.1078 1.3233 5.02299 1.20787 4.90957 1.12603C4.79615 1.0442 4.65986 1.00011 4.52 1H2.33333C1.97971 1 1.64057 1.14048 1.39052 1.39052Z" stroke="#222222" stroke-linecap="round" stroke-linejoin="round"/>
</svg>
