<svg width="30" height="30" viewBox="0 0 30 30" stroke="currentColor" fill="none" xmlns="http://www.w3.org/2000/svg">
<path d="M22.0713 20.8209L16.7675 26.1246C16.5356 26.3568 16.2601 26.541 15.957 26.6667C15.6538 26.7923 15.3288 26.857 15.0006 26.857C14.6724 26.857 14.3475 26.7923 14.0443 26.6667C13.7411 26.541 13.4657 26.3568 13.2338 26.1246L7.92875 20.8209C6.53028 19.4223 5.57792 17.6405 5.19211 15.7007C4.8063 13.7609 5.00437 11.7503 5.76126 9.92305C6.51815 8.09582 7.79988 6.53406 9.44436 5.43527C11.0888 4.33648 13.0222 3.75 15 3.75C16.9778 3.75 18.9112 4.33648 20.5557 5.43527C22.2001 6.53406 23.4819 8.09582 24.2387 9.92305C24.9956 11.7503 25.1937 13.7609 24.8079 15.7007C24.4221 17.6405 23.4697 19.4223 22.0713 20.8209V20.8209Z" stroke="#222222" stroke-width="2" stroke-linecap="round" stroke-linejoin="round"/>
<path d="M17.6517 16.4017C18.3549 15.6984 18.75 14.7446 18.75 13.75C18.75 12.7554 18.3549 11.8016 17.6517 11.0983C16.9484 10.3951 15.9946 10 15 10C14.0054 10 13.0516 10.3951 12.3483 11.0983C11.6451 11.8016 11.25 12.7554 11.25 13.75C11.25 14.7446 11.6451 15.6984 12.3483 16.4017C13.0516 17.1049 14.0054 17.5 15 17.5C15.9946 17.5 16.9484 17.1049 17.6517 16.4017Z" stroke="#222222" stroke-width="2" stroke-linecap="round" stroke-linejoin="round"/>
</svg>
