<svg width="14" height="13" viewBox="0 0 14 13" fill="none" xmlns="http://www.w3.org/2000/svg">
<path d="M7.63406 0.951223C7.43473 0.337223 6.56606 0.337223 6.36606 0.951223L5.3534 4.06722C5.30978 4.20099 5.22496 4.31753 5.11108 4.40015C4.9972 4.48278 4.8601 4.52726 4.7194 4.52722H1.4434C0.798064 4.52722 0.52873 5.35389 1.0514 5.73389L3.70206 7.65922C3.81593 7.742 3.90066 7.85869 3.94414 7.99258C3.98761 8.12647 3.98758 8.27068 3.94406 8.40456L2.93206 11.5206C2.73206 12.1346 3.4354 12.6459 3.9574 12.2659L6.60806 10.3406C6.72199 10.2577 6.85922 10.2131 7.00006 10.2131C7.14091 10.2131 7.27814 10.2577 7.39206 10.3406L10.0427 12.2659C10.5647 12.6459 11.2681 12.1352 11.0681 11.5206L10.0561 8.40456C10.0125 8.27068 10.0125 8.12647 10.056 7.99258C10.0995 7.85869 10.1842 7.742 10.2981 7.65922L12.9487 5.73389C13.4707 5.35389 13.2027 4.52722 12.5567 4.52722H9.28006C9.13948 4.52712 9.00253 4.48258 8.88878 4.39996C8.77503 4.31734 8.69031 4.20088 8.64673 4.06722L7.63406 0.951223Z" fill="#FF7F23"/>
</svg>
