<svg width="18" height="18" viewBox="0 0 18 18" fill="none" xmlns="http://www.w3.org/2000/svg">
<path fill-rule="evenodd" clip-rule="evenodd" d="M17.64 9.20456C17.64 8.56637 17.5827 7.95274 17.4764 7.36365H9V10.845H13.8436C13.635 11.97 13.0009 12.9232 12.0477 13.5614V15.8196H14.9564C16.6582 14.2527 17.64 11.9455 17.64 9.20456Z" fill="#4285F4"/>
<path fill-rule="evenodd" clip-rule="evenodd" d="M8.99976 18C11.4298 18 13.467 17.1941 14.9561 15.8195L12.0475 13.5613C11.2416 14.1013 10.2107 14.4204 8.99976 14.4204C6.65567 14.4204 4.67158 12.8372 3.96385 10.71H0.957031V13.0418C2.43794 15.9831 5.48158 18 8.99976 18Z" fill="#34A853"/>
<path fill-rule="evenodd" clip-rule="evenodd" d="M3.96409 10.7099C3.78409 10.1699 3.68182 9.59313 3.68182 8.99995C3.68182 8.40677 3.78409 7.82995 3.96409 7.28995V4.95813H0.957273C0.347727 6.17313 0 7.54768 0 8.99995C0 10.4522 0.347727 11.8268 0.957273 13.0418L3.96409 10.7099Z" fill="#FBBC05"/>
<path fill-rule="evenodd" clip-rule="evenodd" d="M8.99976 3.57955C10.3211 3.57955 11.5075 4.03364 12.4402 4.92545L15.0216 2.34409C13.4629 0.891818 11.4257 0 8.99976 0C5.48158 0 2.43794 2.01682 0.957031 4.95818L3.96385 7.29C4.67158 5.16273 6.65567 3.57955 8.99976 3.57955Z" fill="#EA4335"/>
</svg>
