<svg width="20" height="20" viewBox="0 0 20 20" fill="none" xmlns="http://www.w3.org/2000/svg">
<path d="M11.5629 15.6875C11.0477 15.7849 10.5246 15.8337 10.0004 15.8333C6.26868 15.8333 3.11035 13.3808 2.04785 10C2.33391 9.09008 2.77451 8.23622 3.35035 7.47583M8.23202 8.2325C8.7009 7.76362 9.33684 7.5002 9.99994 7.5002C10.663 7.5002 11.299 7.76362 11.7679 8.2325C12.2367 8.70138 12.5001 9.33732 12.5001 10.0004C12.5001 10.6635 12.2367 11.2995 11.7679 11.7683M8.23202 8.2325L11.7679 11.7683M8.23202 8.2325L11.767 11.7667M11.7679 11.7683L14.5104 14.51M8.23369 8.23333L5.49202 5.49167M5.49202 5.49167L2.50035 2.5M5.49202 5.49167C6.83565 4.62464 8.40127 4.1645 10.0004 4.16667C13.732 4.16667 16.8904 6.61917 17.9528 10C17.3662 11.8587 16.1482 13.4538 14.5095 14.5092M5.49202 5.49167L14.5095 14.5092M14.5095 14.5092L17.5004 17.5" stroke="#C4C4C4" stroke-linecap="round" stroke-linejoin="round"/>
</svg>
