<svg width="26" height="26" viewBox="0 0 26 26" fill="none" xmlns="http://www.w3.org/2000/svg">
<path d="M14.2681 1.90245C13.8695 0.674445 12.1321 0.674445 11.7321 1.90245L9.70679 8.13444C9.61956 8.40198 9.44992 8.63506 9.22216 8.80031C8.9944 8.96556 8.72019 9.05452 8.43879 9.05445H1.88679C0.596127 9.05445 0.0574605 10.7078 1.10279 11.4678L6.40413 15.3184C6.63185 15.484 6.80133 15.7174 6.88827 15.9852C6.97522 16.2529 6.97516 16.5414 6.88813 16.8091L4.86413 23.0411C4.46413 24.2691 5.87079 25.2918 6.91479 24.5318L12.2161 20.6811C12.444 20.5155 12.7184 20.4263 13.0001 20.4263C13.2818 20.4263 13.5563 20.5155 13.7841 20.6811L19.0855 24.5318C20.1295 25.2918 21.5361 24.2704 21.1361 23.0411L19.1121 16.8091C19.0251 16.5414 19.025 16.2529 19.112 15.9852C19.1989 15.7174 19.3684 15.484 19.5961 15.3184L24.8975 11.4678C25.9415 10.7078 25.4055 9.05445 24.1135 9.05445H17.5601C17.279 9.05424 17.0051 8.96515 16.7776 8.79992C16.5501 8.63468 16.3806 8.40176 16.2935 8.13444L14.2681 1.90245Z" fill="current"/>
</svg>
