<svg width="98" height="96" viewBox="0 0 98 96" fill="none" xmlns="http://www.w3.org/2000/svg">
<g id="Frame" clip-path="url(#clip0_10804_17156)">
<path id="Vector" d="M97.9995 55.9125V71.07C97.9995 73.0045 97.2436 74.8204 95.8753 76.1933C94.5071 77.5599 92.6891 78.3087 90.7523 78.3087H85.1732L78.9256 87.6691C78.1634 88.8173 77.7573 90.1527 77.7573 91.5318C77.7573 93.9967 75.7518 95.9998 73.2777 95.9998H73.0403C71.1036 95.9998 69.2855 95.2448 67.9173 93.8782C66.5491 92.5115 65.7931 90.6956 65.7931 88.7612V78.3087H55.9281C54.6911 78.3087 53.4728 77.9905 52.3982 77.3914C51.3236 76.7924 50.4115 75.925 49.7617 74.8766C49.112 73.8345 48.7434 72.6301 48.6872 71.4008C48.6309 70.1652 48.8933 68.9359 49.4431 67.8376L58.3022 50.1465C58.902 48.9421 59.8266 47.9312 60.9762 47.226C62.1195 46.5147 63.4378 46.1465 64.781 46.1465H74.9459C75.5394 46.1465 76.1329 46.2151 76.7077 46.3587L85.9604 48.6738H90.7523C92.6891 48.6738 94.5071 49.4226 95.8753 50.7892C97.2436 52.1558 97.9995 53.978 97.9995 55.9125ZM93.7262 73.7471C93.7262 73.7471 94.5571 67.4133 94.1448 69.2978C94.051 69.7097 93.8636 70.0466 93.6262 70.3212V55.9125C93.6262 55.1449 93.3263 54.4211 92.7828 53.8782C92.2392 53.3353 91.5208 53.042 90.7523 53.042H87.8784V71.4507H87.3161V74.6894H91.2396L93.7262 73.7471ZM83.5051 72.9359V52.5615L75.6456 50.5958C75.4144 50.5396 75.1833 50.5147 74.9459 50.5147H64.781C64.2499 50.5147 63.7251 50.6582 63.2691 50.939C62.8192 51.2198 62.4506 51.6192 62.2132 52.0997L54.235 68.0248C53.7665 66.7643 53.579 65.641 53.579 65.641L52.292 71.2947L54.5974 74.5771L74.1087 75.4819C73.9525 74.9078 73.7526 74.4211 73.5152 73.9967C74.496 74.2089 75.227 75.0825 75.227 76.1246C75.227 77.2354 74.3961 78.1527 73.3277 78.29V77.8033L69.6791 77.4538L69.5292 87.4569L70.635 91.3009L73.915 92.1309L74.5085 88.886C74.2461 88.7487 74.0212 88.5365 73.8463 88.3243C74.1649 87.2385 74.6522 86.2027 75.2895 85.2479L83.5051 72.9359Z" fill="#0080B5"/>
<path id="Vector_2" d="M94.145 69.298C94.5574 67.4135 93.7265 73.7473 93.7265 73.7473L91.2399 74.6896H87.3164V71.4509H87.8787V73.5976C87.8787 73.7161 87.8662 73.8285 87.8537 73.9408H90.7526C91.521 73.9408 92.2395 73.6412 92.7831 73.0983C93.3266 72.5617 93.6265 71.8378 93.6265 71.0703V70.3214C93.8639 70.0469 94.0513 69.7099 94.145 69.298Z" fill="#0080B5"/>
<path id="Vector_3" d="M93.6283 70.3213V71.0701C93.6283 71.8377 93.3284 72.5615 92.7848 73.0982C92.2413 73.6411 91.5228 73.9406 90.7544 73.9406H87.8555C87.868 73.8283 87.8805 73.716 87.8805 73.5974V71.4508H91.3541C91.3541 71.4508 92.7973 71.2885 93.6283 70.3213Z" fill="#83D0F5" fill-opacity="0.3"/>
<path id="Vector_4" d="M93.6267 55.9125V70.3212C92.7958 71.2885 91.3526 71.4507 91.3526 71.4507H87.8789V53.042H90.7528C91.5213 53.042 92.2397 53.3353 92.7833 53.8782C93.3268 54.4211 93.6267 55.145 93.6267 55.9125Z" fill="white"/>
<path id="Vector_5" d="M83.5044 52.5615V72.9359L75.2888 85.2479C74.6516 86.2026 74.1642 87.2385 73.8456 88.3243C73.5082 87.9125 73.3271 87.4819 73.3271 87.4819V78.29C74.3954 78.1527 75.2263 77.2354 75.2263 76.1246C75.2263 75.0825 74.4954 74.2089 73.5145 73.9967C72.2025 71.6129 69.9159 71.4507 69.9159 71.4507C69.9159 71.4507 60.7444 71.3696 57.6518 71.4507C55.9087 71.4944 54.8404 69.6473 54.2344 68.0248L62.2126 52.0997C62.45 51.6192 62.8186 51.2198 63.2684 50.939C63.7245 50.6582 64.2493 50.5146 64.7803 50.5146H74.9452C75.1826 50.5146 75.4138 50.5396 75.6449 50.5958L83.5044 52.5615Z" fill="white"/>
<path id="Vector_6" d="M74.5106 88.8862L73.9171 92.1312L70.6371 91.3012L69.5312 87.4572L69.6812 77.4541L73.3298 77.8036V78.2903C73.2361 78.3028 73.1424 78.309 73.0424 78.309H70.1685V88.7614C70.1685 89.5165 70.4746 90.2591 71.0119 90.7895C71.5555 91.3324 72.274 91.6319 73.0424 91.6319H73.2798C73.3423 91.6319 73.386 91.5883 73.386 91.5321C73.386 90.4401 73.5485 89.3605 73.8483 88.3246C74.0233 88.5368 74.2482 88.749 74.5106 88.8862Z" fill="#0080B5"/>
<path id="Vector_7" d="M74.1096 75.482L54.5983 74.5772L52.293 71.2948L53.58 65.6411C53.58 65.6411 53.7674 66.7644 54.236 68.0249L53.3551 69.7909C53.1364 70.2277 53.0364 70.7144 53.0552 71.2012C53.0802 71.6879 53.2239 72.1684 53.4863 72.5803C53.7424 72.9984 54.0985 73.3416 54.5296 73.5787C54.9545 73.8158 55.4418 73.9406 55.9291 73.9406H73.0413C73.2037 73.9406 73.3662 73.9594 73.5161 73.9968C73.7535 74.4211 73.9534 74.9079 74.1096 75.482Z" fill="#0080B5"/>
<path id="Vector_8" d="M73.3293 87.4819C73.3293 87.4819 73.5104 87.9125 73.8478 88.3244C73.5479 89.3602 73.3855 90.4398 73.3855 91.5318C73.3855 91.588 73.3418 91.6317 73.2793 91.6317H73.0419C72.2734 91.6317 71.5549 91.3322 71.0114 90.7893C70.4741 90.2588 70.168 89.5163 70.168 88.7612V78.3088H73.0419C73.1418 78.3088 73.2355 78.3025 73.3293 78.29V87.4819Z" fill="#83D0F5" fill-opacity="0.3"/>
<path id="Vector_9" d="M73.5139 73.9968C73.364 73.9594 73.2015 73.9407 73.0391 73.9407H55.9269C55.4396 73.9407 54.9523 73.8159 54.5274 73.5787C54.0964 73.3416 53.7402 72.9984 53.4841 72.5803C53.2217 72.1684 53.078 71.6879 53.053 71.2012C53.0343 70.7144 53.1342 70.2277 53.3529 69.7909L54.2338 68.0249C54.8398 69.6474 55.9082 71.4945 57.6512 71.4508C60.7438 71.3697 69.9153 71.4508 69.9153 71.4508C69.9153 71.4508 72.2019 71.613 73.5139 73.9968Z" fill="#83D0F5" fill-opacity="0.3"/>
<path id="Vector_10" d="M61.0391 30.4774C61.1016 31.9314 60.7955 33.3853 60.1457 34.6895L48.975 56.9922C48.2628 58.415 47.1757 59.6131 45.82 60.4493C44.4642 61.2855 42.9086 61.7285 41.3154 61.7285H28.4953C27.7956 61.7285 27.0959 61.6412 26.4149 61.4727L14.6819 58.5398H8.57172C6.27885 58.5398 4.12967 57.6474 2.51154 56.0312C0.893408 54.415 0 52.2683 0 49.9844V30.8643C0 28.5803 0.893408 26.4275 2.51154 24.8112C4.12967 23.195 6.2851 22.3089 8.57172 22.3089H15.9064L23.9533 10.2527C24.9842 8.71139 25.5277 6.92044 25.5277 5.06708C25.5277 2.27769 27.8019 0 30.6008 0H30.9007C33.1873 0 35.3427 0.892356 36.9609 2.50858C38.579 4.1248 39.4661 6.27145 39.4661 8.56162V22.3089H52.4799C53.9356 22.3089 55.3788 22.6833 56.6533 23.3885C57.9216 24.0998 59.0024 25.1295 59.7646 26.3651C60.5331 27.6006 60.9704 29.0234 61.0391 30.4774ZM56.2347 32.7364C56.5471 32.0998 56.7033 31.3885 56.6721 30.6771C56.6346 29.9657 56.4222 29.2668 56.0473 28.6615C55.6724 28.0562 55.1476 27.5507 54.5229 27.2075C53.8981 26.858 53.1921 26.6771 52.4799 26.6771H30.9007C29.6949 26.6771 28.714 25.6973 28.714 24.493C28.714 23.2886 29.6949 22.3089 30.9007 22.3089H35.0928V8.56162C35.0928 7.43838 34.6617 6.39002 33.8683 5.5975C33.0748 4.80499 32.019 4.36818 30.9007 4.36818H30.6008C30.2134 4.36818 29.9011 4.68643 29.9011 5.06708C29.9011 7.78783 29.1014 10.4212 27.5894 12.6739L20.7733 22.8892V18.4961L15.9377 27.6006L15.4878 54.8892L27.4645 58.1529L43.6645 57.9033C43.6645 57.9033 47.6255 52.8487 49.9746 49.9782C50.4932 49.61 50.9555 49.1669 51.3116 48.6303C52.1675 47.3573 51.3491 48.2933 49.9746 49.9782C49.075 50.6271 47.9879 51.0515 46.9258 51.3198L56.2347 32.7364ZM13.2762 55.2387L13.9134 51.0203H12.7639V27.6755C12.7639 27.3261 12.8451 26.9828 13.0075 26.6771H8.57172C7.44715 26.6771 6.39755 27.1139 5.60411 27.9002C4.81066 28.6927 4.37333 29.7473 4.37333 30.8643V47.6069C4.02346 46.5523 3.95474 45.6661 3.95474 45.6661L3.6486 49.9282L6.21637 54.7519L13.2762 55.2387Z" fill="#E73458"/>
<path id="Vector_11" d="M56.6722 30.6771C56.7034 31.3884 56.5473 32.0998 56.2349 32.7363L46.9259 51.3198C44.6643 51.9064 42.5276 51.8253 42.5276 51.8253H28.5205L20.7734 50.4524V22.8892L27.5896 12.6739C29.1015 10.4212 29.9012 7.78782 29.9012 5.06707C29.9012 4.68642 30.2136 4.36816 30.6009 4.36816H30.9008C32.0191 4.36816 33.075 4.80498 33.8684 5.59749C34.6619 6.39001 35.093 7.43837 35.093 8.56161V22.3089H30.9008C29.695 22.3089 28.7141 23.2824 28.7141 24.493C28.7141 25.7036 29.695 26.6771 30.9008 26.6771H52.4801C53.1923 26.6771 53.8983 26.858 54.523 27.2075C55.1478 27.5507 55.6726 28.0562 56.0474 28.6615C56.4223 29.2668 56.6347 29.9657 56.6722 30.6771Z" fill="white"/>
<path id="Vector_12" d="M49.9766 49.9783C51.351 48.2934 52.1695 47.3574 51.3136 48.6304C50.9574 49.1671 50.4951 49.6101 49.9766 49.9783Z" fill="#E73458"/>
<path id="Vector_13" d="M46.9263 51.3198C47.9883 51.0515 49.0754 50.6271 49.9751 49.9781C47.626 52.8487 43.665 57.9033 43.665 57.9033L27.4649 58.1529L15.4883 54.8892L15.9381 27.6006L20.7738 18.4961V22.8892L17.1376 28.337V54.6521L27.4774 57.2356C27.8148 57.3167 28.1522 57.3604 28.4958 57.3604H41.3159C42.0968 57.3604 42.8591 57.142 43.5213 56.7301C44.1836 56.3245 44.7146 55.7379 45.0645 55.0452L46.9263 51.3198Z" fill="#E73458"/>
<path id="Vector_14" d="M46.9253 51.3197L45.0635 55.0452C44.7137 55.7378 44.1826 56.3244 43.5204 56.73C42.8581 57.1419 42.0959 57.3603 41.315 57.3603H28.4949C28.1513 57.3603 27.8139 57.3166 27.4765 57.2355L17.1367 54.652V28.3369L20.7728 22.8892V50.4523L28.5199 51.8252H42.527C42.527 51.8252 44.6637 51.9063 46.9253 51.3197Z" fill="#F191A9" fill-opacity="0.3"/>
<path id="Vector_15" d="M13.9133 51.0202L13.276 55.2386L6.2162 54.7518L3.64844 49.9281L3.95457 45.666C3.95457 45.666 4.02329 46.5521 4.37316 47.6067V49.9843C4.37316 51.1013 4.81049 52.1559 5.60394 52.9421C6.39739 53.7347 7.44698 54.1715 8.57155 54.1715H12.7637V51.0202H13.9133Z" fill="#E73458"/>
<path id="Vector_16" d="M8.57339 26.6772H13.0092C12.8468 26.983 12.7655 27.3262 12.7655 27.6757V51.0205H7.84242C5.83069 50.7397 4.84982 49.0236 4.375 47.607V30.8645C4.375 29.7474 4.81233 28.6928 5.60578 27.9003C6.39923 27.1141 7.44882 26.6772 8.57339 26.6772Z" fill="white"/>
<path id="Vector_17" d="M12.7655 51.0204V54.1717H8.57339C7.44882 54.1717 6.39923 53.7349 5.60578 52.9423C4.81233 52.1561 4.375 51.1015 4.375 49.9845V47.6069C4.84982 49.0235 5.83069 50.7395 7.84242 51.0204H12.7655Z" fill="#F191A9" fill-opacity="0.3"/>
</g>
<defs>
<clipPath id="clip0_10804_17156">
<rect width="98" height="96" fill="white"/>
</clipPath>
</defs>
</svg>
