<svg width="16" height="16" viewBox="0 0 16 16" fill="none" xmlns="http://www.w3.org/2000/svg">
<g id="report">
<mask id="mask0_10804_18399" style="mask-type:alpha" maskUnits="userSpaceOnUse" x="0" y="0" width="16" height="16">
<rect id="Bounding box" width="16" height="16" fill="#C4C4C4"/>
</mask>
<g mask="url(#mask0_10804_18399)">
<path id="report_2" d="M8.33333 11.2833C8.44444 11.2833 8.54178 11.2444 8.62533 11.1667C8.70844 11.0889 8.75 10.9889 8.75 10.8667C8.75 10.7556 8.70844 10.6611 8.62533 10.5833C8.54178 10.5056 8.44444 10.4667 8.33333 10.4667C8.22222 10.4667 8.12489 10.5056 8.04133 10.5833C7.95822 10.6611 7.91667 10.7556 7.91667 10.8667C7.91667 10.9889 7.95822 11.0889 8.04133 11.1667C8.12489 11.2444 8.22222 11.2833 8.33333 11.2833ZM8 9.3H8.66667V5.25H8V9.3ZM6.11667 13.6667L3 10.55V6.11667L6.11667 3H10.55L13.6667 6.11667V10.55L10.55 13.6667H6.11667ZM6.4 13H10.2667L13 10.2667V6.4L10.2667 3.66667H6.4L3.66667 6.4V10.2667L6.4 13Z" fill="#C4C4C4"/>
</g>
</g>
</svg>
