<svg width="16" height="16" viewBox="0 0 16 16" fill="none" xmlns="http://www.w3.org/2000/svg">
<g id="star">
<rect width="16" height="16" fill="white"/>
<path id="Vector" d="M8.63406 1.95122C8.43473 1.33722 7.56606 1.33722 7.36606 1.95122L6.3534 5.06722C6.30978 5.20099 6.22496 5.31753 6.11108 5.40015C5.9972 5.48278 5.8601 5.52726 5.7194 5.52722H2.4434C1.79806 5.52722 1.52873 6.35389 2.0514 6.73389L4.70206 8.65922C4.81593 8.742 4.90066 8.85869 4.94414 8.99258C4.98761 9.12647 4.98758 9.27068 4.94406 9.40456L3.93206 12.5206C3.73206 13.1346 4.4354 13.6459 4.9574 13.2659L7.60806 11.3406C7.72199 11.2577 7.85922 11.2131 8.00006 11.2131C8.14091 11.2131 8.27814 11.2577 8.39206 11.3406L11.0427 13.2659C11.5647 13.6459 12.2681 13.1352 12.0681 12.5206L11.0561 9.40456C11.0125 9.27068 11.0125 9.12647 11.056 8.99258C11.0995 8.85869 11.1842 8.742 11.2981 8.65922L13.9487 6.73389C14.4707 6.35389 14.2027 5.52722 13.5567 5.52722H10.2801C10.1395 5.52712 10.0025 5.48258 9.88878 5.39996C9.77503 5.31734 9.69031 5.20088 9.64673 5.06722L8.63406 1.95122Z" fill="#FF7F23"/>
</g>
</svg>
