<svg width="20" height="20" viewBox="0 0 20 20" fill="none" xmlns="http://www.w3.org/2000/svg">
<path d="M11.7678 11.7678C12.2366 11.2989 12.5 10.663 12.5 10C12.5 9.33696 12.2366 8.70107 11.7678 8.23223C11.2989 7.76339 10.663 7.5 10 7.5C9.33696 7.5 8.70107 7.76339 8.23223 8.23223C7.76339 8.70107 7.5 9.33696 7.5 10C7.5 10.663 7.76339 11.2989 8.23223 11.7678C8.70107 12.2366 9.33696 12.5 10 12.5C10.663 12.5 11.2989 12.2366 11.7678 11.7678Z" stroke="#FF7F23" stroke-linecap="round" stroke-linejoin="round"/>
<path d="M2.04785 10.0003C3.10952 6.61949 6.26868 4.16699 9.99952 4.16699C13.7312 4.16699 16.8895 6.61949 17.9512 10.0003C16.8895 13.3812 13.7312 15.8337 9.99952 15.8337C6.26868 15.8337 3.10952 13.3812 2.04785 10.0003Z" stroke="#FF7F23" stroke-linecap="round" stroke-linejoin="round"/>
</svg>
