<svg width="105" height="21" viewBox="0 0 105 21" fill="none" xmlns="http://www.w3.org/2000/svg">
<circle cx="52.5" cy="10.5" r="10" transform="rotate(-180 52.5 10.5)" fill="#FF7F23" stroke="#FF7F23"/>
<circle cx="94.5" cy="10.5" r="10" transform="rotate(-180 94.5 10.5)" fill="#FF7F23" stroke="#FF7F23"/>
<circle cx="10.5" cy="10.5" r="10.5" transform="rotate(-180 10.5 10.5)" fill="#FF7F23"/>
<path d="M10.6442 6.468H9.81616L8.68816 6.864L8.96416 7.656L9.81616 7.368V14.868H10.6442V6.468Z" fill="white"/>
<path d="M50.8092 13.344C51.5292 12.672 52.1132 12.108 52.5612 11.652C53.0092 11.188 53.3892 10.716 53.7012 10.236C54.0212 9.748 54.1812 9.304 54.1812 8.904C54.1812 8.52 54.1012 8.184 53.9412 7.896C53.7892 7.6 53.5812 7.376 53.3172 7.224C53.0532 7.072 52.7652 6.996 52.4532 6.996C52.0852 6.996 51.7372 7.104 51.4092 7.32C51.0892 7.528 50.8252 7.868 50.6172 8.34L49.8252 8.004C50.1052 7.364 50.4852 6.908 50.9652 6.636C51.4532 6.364 51.9492 6.228 52.4532 6.228C52.8932 6.228 53.3092 6.336 53.7012 6.552C54.1012 6.768 54.4252 7.08 54.6732 7.488C54.9212 7.888 55.0452 8.36 55.0452 8.904C55.0452 9.416 54.8732 9.948 54.5292 10.5C54.1932 11.052 53.7892 11.572 53.3172 12.06C52.8452 12.548 52.2412 13.132 51.5052 13.812L51.0372 14.244H55.1892V15.012H49.8612V14.244L50.8092 13.344Z" fill="white"/>
<path d="M95.9797 10.524C96.3637 10.756 96.6757 11.052 96.9157 11.412C97.1637 11.764 97.2877 12.144 97.2877 12.552C97.2877 13.024 97.1597 13.452 96.9037 13.836C96.6477 14.22 96.3037 14.524 95.8717 14.748C95.4397 14.964 94.9797 15.072 94.4917 15.072C94.0037 15.072 93.5437 14.964 93.1117 14.748C92.6877 14.524 92.3477 14.22 92.0917 13.836C91.8357 13.452 91.7077 13.024 91.7077 12.552H92.5717C92.5717 12.832 92.6517 13.108 92.8117 13.38C92.9797 13.644 93.2117 13.864 93.5077 14.04C93.8037 14.216 94.1317 14.304 94.4917 14.304C94.8597 14.304 95.1917 14.22 95.4877 14.052C95.7837 13.876 96.0117 13.656 96.1717 13.392C96.3397 13.12 96.4237 12.844 96.4237 12.564C96.4237 12.108 96.2637 11.72 95.9437 11.4C95.6317 11.072 95.1557 10.908 94.5157 10.908H93.8797V10.116H94.5157C94.8917 10.116 95.2157 10.048 95.4877 9.912C95.7597 9.768 95.9637 9.58 96.0997 9.348C96.2357 9.116 96.3037 8.868 96.3037 8.604C96.3037 8.356 96.2277 8.112 96.0757 7.872C95.9317 7.624 95.7237 7.424 95.4517 7.272C95.1877 7.112 94.8917 7.032 94.5637 7.032C94.2277 7.032 93.9237 7.112 93.6517 7.272C93.3877 7.424 93.1797 7.624 93.0277 7.872C92.8837 8.12 92.8117 8.372 92.8117 8.628H91.9477C91.9477 8.188 92.0677 7.788 92.3077 7.428C92.5557 7.068 92.8797 6.784 93.2797 6.576C93.6797 6.368 94.1077 6.264 94.5637 6.264C95.0197 6.264 95.4477 6.368 95.8477 6.576C96.2477 6.784 96.5677 7.068 96.8077 7.428C97.0477 7.788 97.1677 8.188 97.1677 8.628C97.1677 9.004 97.0557 9.356 96.8317 9.684C96.6157 10.012 96.3317 10.292 95.9797 10.524Z" fill="white"/>
<line x1="21" y1="10.5" x2="43" y2="10.5" stroke="#FF7F23"/>
<line x1="63" y1="10.5" x2="85" y2="10.5" stroke="#FF7F23"/>
</svg>
