<svg width="105" height="21" viewBox="0 0 105 21" fill="none" xmlns="http://www.w3.org/2000/svg">
<circle cx="52.5" cy="10.5" r="10.5" transform="rotate(-180 52.5 10.5)" fill="#FF7F23"/>
<circle cx="10.5" cy="10.5" r="10.5" transform="rotate(-180 10.5 10.5)" fill="#FF7F23"/>
<path d="M10.9897 6.468H10.1617L8.52967 7.38L8.90167 8.124L10.1617 7.44V14.868H10.9897V6.468Z" fill="white"/>
<path d="M49.9429 14.76H55.0909V13.92H51.1429L54.2989 10.512C54.4909 10.32 54.6229 10.092 54.7549 9.852C55.2949 8.568 54.7429 7.152 53.4589 6.624C52.1509 6.072 50.3389 6.516 49.9069 8.172L50.8189 8.28C51.1429 7.308 52.1869 7.008 53.0869 7.38C53.9869 7.776 54.3349 8.688 53.9629 9.468C53.9029 9.6 53.7949 9.72 53.6989 9.852L49.9429 13.92V14.76Z" fill="white"/>
<line x1="21" y1="10.5" x2="43" y2="10.5" stroke="#FF7F23"/>
</svg>
