<svg width="16" height="17" viewBox="0 0 16 17" fill="none" xmlns="http://www.w3.org/2000/svg">
<mask id="mask0_8065_23307" style="mask-type:alpha" maskUnits="userSpaceOnUse" x="0" y="0" width="16" height="17">
<rect y="0.5" width="16" height="16" fill="#D9D9D9"/>
</mask>
<g mask="url(#mask0_8065_23307)">
<path d="M8.21494 14.5C6.64499 14.5 5.27708 13.9916 4.11123 12.9747C2.94491 11.9582 2.27643 10.6889 2.10578 9.16667H3.50509C3.66436 10.3222 4.19041 11.2778 5.08323 12.0333C5.97651 12.7889 7.02041 13.1667 8.21494 13.1667C9.54598 13.1667 10.675 12.7138 11.6019 11.808C12.5293 10.9027 12.993 9.8 12.993 8.5C12.993 7.2 12.5293 6.09711 11.6019 5.19133C10.675 4.286 9.54598 3.83333 8.21494 3.83333C7.42996 3.83333 6.69618 4.01111 6.0136 4.36667C5.33101 4.72222 4.7565 5.21111 4.29006 5.83333H6.16718V7.16667H2.07166V3.16667H3.43683V4.73333C4.01703 4.02222 4.72533 3.47222 5.56172 3.08333C6.39766 2.69444 7.28207 2.5 8.21494 2.5C9.06817 2.5 9.86748 2.65822 10.6129 2.97467C11.3578 3.29156 12.0063 3.71933 12.5582 4.258C13.1098 4.79711 13.5478 5.43044 13.8722 6.158C14.1962 6.886 14.3582 7.66667 14.3582 8.5C14.3582 9.33333 14.1962 10.1138 13.8722 10.8413C13.5478 11.5693 13.1098 12.2027 12.5582 12.7413C12.0063 13.2804 11.3578 13.7084 10.6129 14.0253C9.86748 14.3418 9.06817 14.5 8.21494 14.5ZM10.1262 11.3L7.53235 8.76667V5.16667H8.89753V8.23333L11.0818 10.3667L10.1262 11.3Z" fill="#898A8D"/>
</g>
</svg>
