<svg width="133" height="31" viewBox="0 0 133 31" fill="none" xmlns="http://www.w3.org/2000/svg">
<g clip-path="url(#clip0_5973_11425)">
<path d="M6.73468 8.93437V5.48127L9.02577 3.96875L8.88252 8.93437C8.84431 9.42631 9.21678 10.0235 9.69429 10.2127L13.9442 12.1036C14.1734 12.255 14.9469 12.3413 15.3777 12.1036L19.8653 10.3546C20.6676 10.0897 21.1228 9.31279 21.1069 8.93437V5.34053L22.9702 5.71779V9.97503L22.5404 11.063C21.6236 11.4792 17.3833 13.2231 15.3777 14.0431C14.6137 14.3079 13.8496 14.1534 13.5631 14.0431C12.1879 13.6268 8.59601 11.7422 7.11571 10.9222L6.73468 8.93437Z" fill="#FF7F23"/>
<path d="M2.09999 5.58055C1.29777 5.92113 1.0374 6.45287 1.30571 6.94649C1.67202 7.6204 2.44239 7.3409 2.74481 7.30936C6.14472 6.47684 11.3638 3.67268 13.5126 2.41127C14.5221 1.76254 15.095 2.18214 15.4352 2.41127C18.3002 4.34122 23.523 6.7398 26.0061 7.82776C27.1521 8.3299 27.9564 8.17773 28.1517 7.82776C28.6226 6.98352 27.7068 6.42809 27.3929 6.27258C23.8456 4.51562 18.049 1.63867 15.6614 0.188051C14.7446 -0.152528 14.0378 0.0461434 13.7991 0.188051C10.3992 2.08016 5.58584 4.10066 2.09999 5.58055Z" fill="#FF7F23"/>
<path fill-rule="evenodd" clip-rule="evenodd" d="M6.83815 19.8545C6.72673 19.3657 6.72437 18.4518 7.41199 18.1112C7.74625 17.9378 8.51027 17.9031 8.89228 19.1519C9.24246 19.9087 10.3821 21.517 12.1394 21.8954C12.2667 19.956 13.7465 16.782 18.0632 16.7441C18.7226 16.7441 20.7321 16.8957 21.6479 18.8696C22.0087 19.6472 22.1189 21.5393 20.7321 22.7834C19.7117 23.6989 18.0632 24.7274 15.2635 24.7274C13.6412 24.7274 12.1394 24.7274 9.8472 23.4574C7.55503 22.1873 6.94957 20.3433 6.83815 19.8545ZM18.3103 18.8951C16.9196 18.5928 14.1384 19.0506 14.1384 22.5511C15.2733 22.7325 16.8974 22.6341 18.3103 21.7804C19.5775 21.0148 19.9979 19.2619 18.3103 18.8951Z" fill="#FF7F23"/>
<path d="M0.000973087 19.394C0.0391618 13.1458 4.695 9.70174 7.01814 8.76074L7.68616 10.8321C3.79091 12.6764 2.38748 16.3683 2.29201 17.9366C1.41367 23.6383 6.07935 26.8824 8.35476 27.7218C12.8419 29.792 17.7269 29.0078 19.9546 28.2864C25.6065 26.5173 27.5446 22.0835 27.5446 19.394C27.5446 14.8962 24.044 11.968 22.2936 11.0662L22.4503 8.76074C25.5031 10.1349 27.9699 13.2159 28.7824 14.9556C30.5964 19.283 29.1488 23.3601 27.5446 25.4824C24.2558 29.8335 18.7756 30.9999 15.4641 30.9999C9.3675 30.9999 5.77386 29.1077 3.87277 27.5266C0.70667 24.8934 -0.0308508 21.2603 0.000973087 19.394Z" fill="#FF7F23"/>
<path d="M53.4268 17.1461C53.4268 17.1461 53.4268 17.0738 53.4268 17.0557C53.3994 17.0557 53.3537 17.0557 53.3079 17.0557H49.851C49.6864 17.0557 49.6224 17.0828 49.6041 17.1009C49.6224 17.0918 49.6041 17.1461 49.5858 17.2727L49.4212 18.593H38.5109L38.6938 17.1551C38.6938 17.1551 38.6938 17.0828 38.6938 17.0647C38.6663 17.0647 38.6206 17.0647 38.5749 17.0647H35.1179C35.0082 17.0647 34.9168 17.0828 34.871 17.1009C34.8802 17.1009 34.871 17.1551 34.8436 17.2727L33.9931 24.0008C33.8833 24.8871 33.9748 25.511 34.2766 25.8728C34.5784 26.2164 35.1088 26.3882 35.8313 26.3882H49.9608C50.7107 26.3882 51.3143 26.1983 51.7441 25.8185C52.1556 25.4387 52.43 24.7876 52.5397 23.8833L53.3902 17.1551L53.4268 17.1461ZM48.9365 22.5268C48.8908 22.9247 48.7719 23.2141 48.589 23.413C48.3603 23.621 48.0585 23.7024 47.6653 23.7024H39.1053C38.8126 23.7024 38.4468 23.6662 38.2091 23.404C38.0262 23.1417 37.9804 22.8343 38.0353 22.4183L38.1999 21.1432H49.1102L48.9365 22.5268Z" fill="#FF7F23"/>
<path d="M55.0638 4.7207C55.0638 4.7207 54.9907 4.7207 54.9449 4.7207H51.488C51.3691 4.7207 51.2777 4.73879 51.2411 4.76592C51.2594 4.75688 51.2411 4.81114 51.2228 4.93774L50.8661 7.79538H48.8084L49.1834 4.82018C49.1834 4.82018 49.1834 4.74783 49.1834 4.72975C49.156 4.72975 49.1102 4.72975 49.0645 4.72975H34.3406C34.2034 4.72975 34.1394 4.74783 34.112 4.76592C34.112 4.76592 34.0937 4.82018 34.0754 4.94678L33.7279 7.67782C33.7279 7.71399 33.7279 7.75017 33.7279 7.7773C33.7553 7.7773 33.7919 7.7773 33.8467 7.7773H36.069L36.005 8.28371C35.941 8.78109 35.8587 9.23325 35.7855 9.63115C35.6758 10.0923 35.5478 10.4902 35.3923 10.8248C35.2002 11.2227 34.9899 11.5302 34.7338 11.8106C34.3863 12.1452 34.0296 12.3622 33.6455 12.4707C33.4718 12.543 33.3072 12.5883 33.17 12.6335H33.1426C33.1243 12.6787 33.0877 12.7691 33.0694 12.95L32.731 15.6539C32.731 15.6539 32.731 15.7172 32.731 15.7443C32.7402 15.7443 32.7493 15.7443 32.7676 15.7443C33.6364 15.672 34.368 15.455 34.9808 15.0932C35.5569 14.7586 36.1056 14.2613 36.6635 13.5649L37.0567 13.0766L37.4043 13.6011C37.8432 14.2613 38.2914 14.7496 38.712 15.039C39.1419 15.3826 39.6357 15.5906 40.2302 15.7082C40.8703 15.5906 41.4465 15.3645 41.9495 15.039C42.489 14.7225 43.0652 14.2251 43.6871 13.5468L44.1352 13.0585L44.437 13.6463C44.7754 14.2974 45.1869 14.7767 45.699 15.1023C46.202 15.464 46.8513 15.672 47.647 15.7353C47.7842 15.7624 47.8116 15.7443 47.8208 15.7443C47.8208 15.7443 47.8573 15.6901 47.8756 15.5454L48.214 12.8415C48.2231 12.733 48.2323 12.6606 48.2231 12.6154C48.0951 12.5702 47.9488 12.525 47.7842 12.4526C47.4366 12.3531 47.0891 12.109 46.8514 11.7563C46.705 11.5393 46.4947 11.1866 46.4215 10.7163C46.3392 10.3908 46.3026 9.97479 46.3301 9.51359C46.3301 9.12473 46.3849 8.66353 46.449 8.16615L46.4947 7.76825H48.6255L48.2414 10.8339C48.2414 10.8339 48.2414 10.9062 48.2414 10.9334C48.2689 10.9334 48.3055 10.9334 48.3603 10.9334H50.482L49.8876 15.6629C49.8876 15.6629 49.8876 15.7353 49.8876 15.7624C49.915 15.7624 49.9516 15.7624 50.0065 15.7624H53.4634C53.6189 15.7624 53.6737 15.7443 53.6829 15.7443C53.6829 15.7443 53.7103 15.681 53.7286 15.5454L55.0821 4.81114C55.0821 4.81114 55.0821 4.73879 55.0821 4.7207H55.0638ZM42.7451 8.26563C42.7085 8.52788 42.672 8.77205 42.6354 9.00717C42.5988 9.21516 42.5714 9.41411 42.5439 9.61306C42.425 10.1104 42.3244 10.4902 42.2055 10.8429C42.0684 11.1775 41.9129 11.5393 41.7208 11.8106C41.5014 12.118 41.2179 12.3351 40.8978 12.4436L40.7514 12.4978L40.6051 12.4526C40.2302 12.3351 39.9741 12.0909 39.8278 11.7201C39.6814 11.4669 39.59 11.1052 39.5808 10.7163C39.526 10.3908 39.526 9.98383 39.5808 9.50454C39.5808 9.11569 39.6357 8.65448 39.6997 8.16615L39.7455 7.76825H42.7908L42.7268 8.27467L42.7451 8.26563Z" fill="#FF7F23"/>
<path d="M75.5218 17.0557C75.5218 17.0557 75.4486 17.0557 75.4029 17.0557H71.946C71.7814 17.0557 71.7174 17.0828 71.6991 17.0918C71.7265 17.0828 71.6991 17.1461 71.6808 17.2637L71.5162 18.584H60.6058L60.7887 17.1461C60.7887 17.1461 60.7887 17.0738 60.7887 17.0557C60.7613 17.0557 60.7156 17.0557 60.6698 17.0557H57.2129C57.0483 17.0557 56.9843 17.0828 56.966 17.0918C56.9843 17.0918 56.966 17.1551 56.9477 17.2637L56.0972 23.9918C55.9875 24.878 56.0789 25.502 56.3807 25.8637C56.6825 26.2074 57.2129 26.3792 57.9354 26.3792H72.0649C72.8148 26.3792 73.4184 26.1893 73.8482 25.8095C74.2598 25.4296 74.5341 24.7785 74.6439 23.8742L75.4944 17.1461C75.4944 17.1099 75.4944 17.0738 75.4944 17.0557H75.5218ZM71.0223 22.5268C70.9766 22.9247 70.8577 23.2231 70.6748 23.413C70.4462 23.621 70.1444 23.7024 69.7511 23.7024H61.1911C60.8985 23.7024 60.5327 23.6662 60.2949 23.404C60.112 23.1417 60.0663 22.8343 60.112 22.4183L60.2766 21.1432H71.1869L71.0132 22.5268H71.0223Z" fill="#FF7F23"/>
<path d="M77.1497 4.7207C77.1497 4.7207 77.0765 4.7207 77.0308 4.7207H73.5739C73.4367 4.7207 73.3727 4.73879 73.3453 4.75688C73.3453 4.75688 73.327 4.81114 73.3087 4.93774L72.952 7.79538H70.8943L71.2693 4.82018C71.2693 4.82018 71.2693 4.74783 71.2693 4.72975C71.2418 4.72975 71.1961 4.72975 71.1504 4.72975H56.4265C56.3076 4.72975 56.2253 4.74783 56.1795 4.77496C56.207 4.76592 56.1795 4.82018 56.1613 4.94678L55.8137 7.67782C55.8137 7.67782 55.8137 7.75017 55.8137 7.7773C55.8412 7.7773 55.8777 7.7773 55.9326 7.7773H58.1549L58.0909 8.28371C58.0269 8.78109 57.9446 9.2242 57.8714 9.63115C57.7617 10.0923 57.6245 10.4902 57.4782 10.8248C57.2861 11.2227 57.0758 11.5302 56.8197 11.8015C56.4722 12.1361 56.1155 12.3531 55.7314 12.4617C55.5577 12.534 55.393 12.5792 55.2559 12.6244H55.2284C55.2101 12.6697 55.1736 12.7601 55.1553 12.9409L54.8169 15.6449C54.8169 15.6449 54.8169 15.7082 54.8169 15.7353C54.826 15.7353 54.8352 15.7353 54.8535 15.7353C55.7223 15.6629 56.4539 15.4459 57.0666 15.0842C57.6428 14.7586 58.1915 14.2522 58.7494 13.5559L59.1426 13.0676L59.4901 13.5921C59.9291 14.2522 60.3772 14.7405 60.7979 15.0299C61.2277 15.3736 61.7216 15.5816 62.316 15.6991C62.9562 15.5816 63.5324 15.3555 64.0353 15.0299C64.5749 14.7134 65.1511 14.216 65.773 13.5378L66.2211 13.0495L66.5229 13.6373C66.8612 14.2884 67.2728 14.7677 67.7849 15.0932C68.2879 15.455 68.9372 15.6629 69.7329 15.7262C69.87 15.7534 69.9066 15.7353 69.9066 15.7353C69.9066 15.7353 69.9432 15.681 69.9615 15.5363L70.2999 12.8324C70.309 12.7239 70.3182 12.6516 70.309 12.6064C70.181 12.5611 70.0347 12.5159 69.8701 12.4436C69.5225 12.3441 69.175 12.0999 68.9372 11.7472C68.7909 11.5302 68.5806 11.1866 68.5074 10.7163C68.4251 10.3998 68.3885 9.98383 68.4159 9.52263C68.4159 9.13377 68.4708 8.67257 68.5348 8.1752L68.5806 7.7773H70.7114L70.3273 10.8429C70.3273 10.8429 70.3273 10.9153 70.3273 10.9424C70.3548 10.9424 70.3913 10.9424 70.4462 10.9424H72.5679L71.9735 15.672C71.9735 15.672 71.9735 15.7443 71.9735 15.7715C72.0009 15.7715 72.0375 15.7715 72.0924 15.7715H75.5493C75.7047 15.7715 75.7596 15.7534 75.7688 15.7534C75.7688 15.7534 75.7962 15.6901 75.8145 15.5635L77.168 4.82922C77.168 4.82922 77.168 4.75688 77.168 4.73879L77.1497 4.7207ZM64.831 8.26563C64.7944 8.51884 64.7578 8.763 64.7304 8.98908C64.6938 9.19707 64.6664 9.40507 64.6389 9.60402C64.5201 10.1104 64.4195 10.4902 64.3006 10.8429C64.1634 11.1775 64.0079 11.5302 63.8159 11.8015C63.5964 12.109 63.3129 12.326 62.9928 12.4345L62.8465 12.4888L62.7001 12.4436C62.3252 12.326 62.0691 12.0818 61.9228 11.7111C61.7765 11.4579 61.685 11.0961 61.685 10.7073C61.6301 10.3727 61.621 9.97479 61.685 9.4955C61.685 9.10664 61.7399 8.64544 61.8039 8.15711L61.8496 7.75921H64.895L64.831 8.26563Z" fill="#FF7F23"/>
<path d="M99.7752 11.6661C99.9306 11.6661 99.9855 11.648 99.9946 11.648C99.9946 11.648 100.022 11.5847 100.04 11.4581L100.397 8.62757C100.397 8.62757 100.397 8.55522 100.397 8.53714C100.37 8.53714 100.324 8.53714 100.278 8.53714H97.4888L97.9553 4.83848C97.9553 4.83848 97.9553 4.76613 97.9553 4.74805C97.9278 4.74805 97.8821 4.74805 97.8364 4.74805H94.3794C94.2423 4.74805 94.1782 4.76613 94.1508 4.78422C94.1508 4.78422 94.1325 4.83848 94.1142 4.96508L92.6876 16.2781C92.6876 16.2781 92.6876 16.3504 92.6876 16.3776C92.715 16.3776 92.7516 16.3776 92.8065 16.3776H96.2634C96.4188 16.3776 96.4737 16.3595 96.4829 16.3595C96.4829 16.3595 96.5103 16.2962 96.5286 16.1696L97.0956 11.7022H99.766L99.7752 11.6661Z" fill="#FF7F23"/>
<path d="M77.4698 15.3555C77.7716 15.7172 78.2745 15.88 79.0336 15.88H87.0723C87.8588 15.88 88.435 15.6991 88.8465 15.3193C89.258 14.9576 89.5324 14.2884 89.6513 13.375L90.7304 4.81114C90.7304 4.81114 90.7304 4.73879 90.7304 4.7207C90.703 4.7207 90.6573 4.7207 90.6116 4.7207H87.3833C87.2644 4.7207 87.1729 4.73879 87.1363 4.76592C87.1546 4.75688 87.1363 4.81114 87.118 4.93774L86.8254 7.26184H81.5669L81.8778 4.82922C81.8778 4.82922 81.8778 4.75688 81.8778 4.73879C81.8504 4.73879 81.8046 4.73879 81.7589 4.73879H78.5306C78.4209 4.73879 78.3294 4.75688 78.2928 4.77496C78.3111 4.77496 78.2928 4.83826 78.2745 4.94678L77.1954 13.5107C77.0857 14.3969 77.1771 15.048 77.4698 15.3736V15.3555ZM81.0181 11.6659L81.2193 10.0471H86.4779L86.2584 11.7744C86.2035 12.2085 86.0846 12.4888 85.8834 12.6697C85.7188 12.8505 85.417 12.959 84.9872 12.959H82.079C81.7681 12.959 81.3839 12.9138 81.1553 12.5883C80.9541 12.3622 80.9724 11.9733 81.009 11.6659H81.0181Z" fill="#FF7F23"/>
<path d="M96.2451 17.482C96.2451 17.482 96.2451 17.4097 96.2451 17.3916C96.2177 17.3916 96.1719 17.3916 96.1262 17.3916H77.9454C77.8356 17.3916 77.7442 17.4097 77.6984 17.4278C77.7167 17.4278 77.6984 17.473 77.6802 17.5996L77.3235 20.4301C77.3235 20.4301 77.3235 20.5025 77.3235 20.5296C77.3509 20.5296 77.3875 20.5296 77.4424 20.5296H92.0474L91.3707 25.8922C91.3707 25.8922 91.3707 25.9645 91.3707 25.9826C91.3981 25.9826 91.4347 25.9826 91.4895 25.9826H94.9465C95.0836 25.9826 95.1659 25.9555 95.1934 25.9464C95.1842 25.9555 95.1934 25.8922 95.2117 25.7746L96.2542 17.482H96.2451Z" fill="#FF7F23"/>
<path d="M118.404 13.013L119.438 4.81992C119.438 4.81992 119.438 4.74758 119.438 4.72949C119.41 4.72949 119.364 4.72949 119.319 4.72949H115.862C115.743 4.72949 115.661 4.74758 115.615 4.77471C115.642 4.76567 115.615 4.81992 115.597 4.94653L112.89 26.406C112.89 26.406 112.89 26.4783 112.89 26.4964C112.917 26.4964 112.954 26.4964 113.008 26.4964H116.465C116.593 26.4964 116.676 26.4693 116.703 26.4602C116.703 26.4602 116.703 26.406 116.731 26.2794L118.011 16.151H120.681C120.837 16.151 120.892 16.1329 120.901 16.1329C120.901 16.1329 120.928 16.0696 120.947 15.943L121.303 13.1125C121.303 13.0763 121.303 13.0402 121.303 13.0221C121.276 13.0221 121.23 13.0221 121.184 13.0221H118.395L118.404 13.013Z" fill="#FF7F23"/>
<path d="M110.448 22.1014C110.448 22.1014 110.42 22.0653 110.402 22.0472C110.393 22.0472 110.375 22.0381 110.365 22.0291C110.265 22.0291 110.164 22.002 110.082 21.9658C109.259 21.812 108.564 21.5588 108.024 21.1971C107.485 20.8806 107.046 20.4917 106.762 20.0396C106.451 19.6236 106.259 19.1262 106.213 18.5927C106.149 18.1586 106.14 17.6884 106.213 17.1367L107.768 4.81992C107.768 4.81992 107.768 4.74758 107.768 4.72949C107.741 4.72949 107.695 4.72949 107.649 4.72949H104.247C104.128 4.72949 104.037 4.74758 104 4.77471C104.009 4.76567 104 4.81992 103.982 4.94653L102.427 17.2633C102.354 17.8331 102.199 18.3214 102.061 18.7193C101.86 19.2347 101.559 19.705 101.165 20.121C100.763 20.546 100.251 20.9258 99.6563 21.2333C99.007 21.586 98.2571 21.8392 97.4065 21.9839C97.3791 21.9929 97.2785 22.0291 97.1688 22.0381C97.123 22.0472 97.0773 22.0653 97.059 22.0743C97.0407 22.0833 97.0224 22.1105 96.9859 22.1738C96.9401 22.2371 96.9127 22.2913 96.8944 22.4541L96.556 25.158C96.556 25.158 96.556 25.2123 96.556 25.2304C96.5835 25.2304 96.6292 25.2304 96.6749 25.2304C97.1596 25.1852 97.7083 25.1038 98.2753 25.0133L98.4125 24.9952C98.9247 24.8686 99.4917 24.7149 100.159 24.4979C100.772 24.2447 101.321 23.9824 101.824 23.684C102.29 23.3856 102.793 22.9877 103.305 22.5265L103.689 22.1738L103.991 22.5898C104.311 23.0238 104.695 23.4036 105.134 23.7021C105.555 24.0005 106.021 24.2627 106.607 24.516C107.101 24.6968 107.658 24.8596 108.244 25.0043H108.326C108.856 25.1038 109.369 25.1942 109.89 25.2394C109.926 25.2394 109.99 25.2394 110.073 25.2213C110.082 25.1942 110.1 25.1399 110.109 25.0495L110.448 22.3456C110.457 22.2552 110.466 22.1738 110.448 22.1195V22.1014Z" fill="#FF7F23"/>
<path d="M132.698 10.0918C133.567 7.7496 132.47 5.71488 130.467 4.99143C128.464 4.26798 126.297 5.12708 125.437 7.46926C124.705 9.44971 125.263 11.5387 126.671 12.5696L121.349 25.7274C121.248 25.9806 121.376 26.261 121.632 26.3605L123.297 26.9663C123.553 27.0568 123.836 26.9211 123.928 26.6679L128.437 13.2207C130.183 13.3292 131.967 12.0903 132.698 10.1099V10.0918Z" fill="#FF7F23"/>
</g>
<defs>
<clipPath id="clip0_5973_11425">
<rect width="133" height="31" fill="white"/>
</clipPath>
</defs>
</svg>
