<svg width="30" height="30" viewBox="0 0 12 12" fill="none" xmlns="http://www.w3.org/2000/svg">
<circle cx="6" cy="6" r="6" fill="white"/>
<path d="M4.06421 4.36694V3.51477L4.6243 3.14151L4.58928 4.36694C4.57994 4.48835 4.67099 4.63572 4.78773 4.68242L5.82668 5.14907C5.88271 5.18643 6.07182 5.20773 6.17712 5.14907L7.2742 4.71744C7.47031 4.65206 7.5816 4.46033 7.57771 4.36694V3.48004L8.03322 3.57314V4.62376L7.92816 4.89225C7.70403 4.99498 6.66741 5.42535 6.17712 5.62769C5.99035 5.69306 5.80357 5.65493 5.73353 5.62769C5.39733 5.52496 4.51924 5.05986 4.15736 4.85752L4.06421 4.36694Z" fill="#FF7F23"/>
<path d="M2.41816 6.95847C2.4275 5.40823 3.56606 4.55372 4.13417 4.32025L4.29753 4.83417C3.34497 5.29178 3.00177 6.20776 2.97842 6.59688C2.76363 8.01153 3.90459 8.81644 4.46103 9.02469C5.55835 9.53833 6.75294 9.34377 7.29771 9.16478C8.67986 8.72585 9.2121 7.74089 9.1538 6.95847C9.1538 5.84253 8.29774 5.11602 7.86971 4.89225V4.36694C8.55145 4.54438 9.21186 5.45316 9.41055 5.88479C9.85415 6.95847 9.56272 7.98603 9.1538 8.49967C8.19657 9.70205 6.94726 9.76431 6.17681 9.81878C4.86937 9.89349 3.73719 9.29347 3.36364 8.97829C2.63993 8.36763 2.41038 7.42153 2.41816 6.95847Z" fill="#FF7F23"/>
<path d="M2.93189 3.52645C2.73577 3.6105 2.74122 3.76381 2.76846 3.82996C2.86185 3.93269 3.03306 3.9428 3.10699 3.93502C3.93815 3.72957 5.19656 3.05561 5.72187 2.74432C5.95534 2.57622 6.10709 2.67428 6.15379 2.74432C6.8542 3.2206 8.24335 3.87665 8.85038 4.14515C9.03716 4.2292 9.1928 4.14904 9.24728 4.09845C9.34067 3.86498 9.20837 3.73657 9.13055 3.70155C8.22468 3.35601 6.83085 2.55365 6.24718 2.19566C6.02304 2.11161 5.85028 2.16064 5.79191 2.19566C4.96075 2.6626 3.78406 3.16123 2.93189 3.52645Z" fill="#FF7F23"/>
<path d="M4.27887 6.63161C4.11077 6.71566 4.12322 6.97793 4.15046 7.09856C4.33724 7.68223 5.03765 8.04411 5.36451 8.14918C6.01823 8.3593 6.48517 8.29961 6.8237 8.1842C7.33734 8.00909 7.57081 7.56939 7.65253 7.36705C8.06344 6.34911 7.08052 6.11798 6.84705 6.11798C5.79176 6.12732 5.46568 7.08688 5.43455 7.5655C5.00496 7.47211 4.72636 7.07521 4.64075 6.88843C4.54736 6.58025 4.36058 6.58881 4.27887 6.63161Z" fill="#FF7F23"/>
<path d="M6.04883 7.62387C6.04883 6.68064 6.72589 6.60049 7.06443 6.67831C7.43798 6.82773 7.27455 7.23864 7.06443 7.42542C6.71422 7.67056 6.3251 7.67056 6.04883 7.62387Z" fill="white"/>
</svg>
