<svg width="44" height="45" viewBox="0 0 44 45" fill="none" xmlns="http://www.w3.org/2000/svg">
<path d="M9.77539 12.9695V7.95692L13.1012 5.76132L12.8932 12.9695C12.8378 13.6836 13.3784 14.5505 14.0716 14.8251L20.2408 17.57C20.5735 17.7898 21.6964 17.915 22.3217 17.57L28.836 15.0311C30.0005 14.6466 30.6614 13.5188 30.6382 12.9695V7.75261L33.343 8.30024V14.4801L32.7192 16.0594C31.3883 16.6636 25.233 19.1951 22.3217 20.3853C21.2126 20.7698 20.1036 20.5455 19.6877 20.3853C17.6913 19.781 12.4773 17.0453 10.3285 15.8551L9.77539 12.9695Z" fill="#FF7F23"/>
<path d="M3.04898 8.10079C1.88446 8.59518 1.5065 9.36707 1.89598 10.0836C2.42772 11.0619 3.54601 10.6561 3.98501 10.6104C8.92034 9.40185 16.4964 5.3313 19.6156 3.50023C21.0811 2.55853 21.9127 3.16762 22.4064 3.50023C26.5654 6.30177 34.1469 9.78357 37.7513 11.3629C39.4149 12.0918 40.5825 11.8709 40.8659 11.3629C41.5495 10.1374 40.2202 9.33109 39.7644 9.10534C34.6152 6.55493 26.2007 2.37871 22.7349 0.272977C21.404 -0.221411 20.3781 0.0669822 20.0315 0.272977C15.0962 3.01958 8.10908 5.95256 3.04898 8.10079Z" fill="#FF7F23"/>
<path fill-rule="evenodd" clip-rule="evenodd" d="M9.92786 28.8201C9.76612 28.1105 9.76269 26.7839 10.7608 26.2895C11.2461 26.0377 12.3551 25.9874 12.9097 27.8001C13.418 28.8988 15.0723 31.2334 17.6232 31.7827C17.808 28.9674 19.9561 24.36 26.2223 24.305C27.1794 24.305 30.0965 24.525 31.4259 27.3903C31.9496 28.5191 32.1096 31.2657 30.0965 33.0717C28.6152 34.4007 26.2223 35.8936 22.1582 35.8936C19.8033 35.8936 17.6232 35.8936 14.2958 34.05C10.9685 32.2064 10.0896 29.5296 9.92786 28.8201ZM26.5813 27.4271C24.5626 26.9884 20.5254 27.6529 20.5254 32.7343C22.1728 32.9975 24.5303 32.8548 26.5813 31.6155C28.4208 30.5041 29.0311 27.9595 26.5813 27.4271Z" fill="#FF7F23"/>
<path d="M0.00141254 28.1526C0.0568477 19.0826 6.81531 14.0832 10.1876 12.7172L11.1573 15.724C5.50293 18.4013 3.46569 23.7604 3.3271 26.037C2.0521 34.3136 8.82485 39.0229 12.1279 40.2413C18.6415 43.2464 25.7326 42.1081 28.9663 41.0609C37.1707 38.4929 39.984 32.0567 39.984 28.1526C39.984 21.6236 34.9025 17.373 32.3617 16.0638L32.5892 12.7172C37.0207 14.712 40.6015 19.1844 41.7809 21.7097C44.4141 27.9914 42.3127 33.9099 39.984 36.9906C35.2099 43.3067 27.2549 44.9998 22.4479 44.9998C13.598 44.9998 8.3814 42.2532 5.62175 39.958C1.02581 36.1357 -0.0447834 30.8617 0.00141254 28.1526Z" fill="#FF7F23"/>
</svg>
