<svg xmlns="http://www.w3.org/2000/svg">
<symbol id="write" viewBox="0 0 24 24">
  <path stroke="#222" stroke-linecap="round" stroke-linejoin="round" d="M15.232 5.232l3.536 3.536m-2.036-5.036a2.5 2.5 0 0 1 3.536 3.536L6.5 21.036H3v-3.572L16.732 3.732z"/>
</symbol>
<symbol id="my-page" viewBox="0 0 24 24">
  <path stroke="#222" stroke-linecap="round" stroke-linejoin="round" d="M14.828 9.828a4 4 0 1 0-5.656-5.656 4 4 0 0 0 5.656 5.656zM7.05 16.05A7 7 0 0 1 19 21H5a7 7 0 0 1 2.05-4.95z"/>
</symbol>
<symbol id="logo" viewBox="0 0 44 45">
  <path fill="#FF7F23" d="M9.775 12.97V7.957l3.326-2.196-.208 7.208c-.055.715.485 1.582 1.179 1.856l6.169 2.745c.332.22 1.455.345 2.08 0l6.515-2.539c1.165-.384 1.825-1.512 1.802-2.062V7.753l2.705.547v6.18l-.624 1.58c-1.33.604-7.486 3.135-10.397 4.325-1.11.385-2.218.16-2.634 0-1.997-.604-7.21-3.34-9.36-4.53l-.553-2.886z"/>
  <path fill="#FF7F23" d="M3.049 8.1c-1.165.495-1.542 1.267-1.153 1.984.532.978 1.65.572 2.089.526C8.92 9.402 16.496 5.331 19.615 3.5c1.466-.941 2.298-.332 2.791 0 4.16 2.802 11.74 6.284 15.345 7.863 1.664.729 2.832.508 3.115 0 .684-1.226-.646-2.032-1.102-2.258-5.149-2.55-13.563-6.726-17.03-8.832-1.33-.494-2.356-.206-2.703 0C15.097 3.02 8.11 5.953 3.05 8.101z"/>
  <path fill="#FF7F23" fill-rule="evenodd" d="M9.928 28.82c-.162-.71-.165-2.036.833-2.53.485-.252 1.594-.303 2.149 1.51.508 1.099 2.162 3.433 4.713 3.983.185-2.816 2.333-7.423 8.6-7.478.956 0 3.873.22 5.203 3.085.524 1.13.684 3.876-1.33 5.682-1.48 1.329-3.874 2.822-7.938 2.822-2.355 0-4.535 0-7.862-1.844s-4.206-4.52-4.368-5.23zm16.653-1.393c-2.018-.439-6.056.226-6.056 5.307 1.648.264 4.005.12 6.056-1.119 1.84-1.11 2.45-3.655 0-4.188z" clip-rule="evenodd"/>
  <path fill="#FF7F23" d="M.001 28.153c.056-9.07 6.814-14.07 10.187-15.436l.97 3.007c-5.655 2.677-7.692 8.036-7.83 10.313-1.276 8.277 5.497 12.986 8.8 14.204 6.514 3.005 13.605 1.867 16.838.82 8.205-2.568 11.018-9.004 11.018-12.908 0-6.53-5.081-10.78-7.622-12.09l.227-3.346c4.432 1.995 8.013 6.467 9.192 8.993 2.633 6.281.532 12.2-1.797 15.28C35.21 43.308 27.254 45 22.448 45c-8.85 0-14.067-2.747-16.826-5.042-4.596-3.822-5.667-9.096-5.62-11.805z"/>
</symbol>
<symbol id="setting" viewBox="0 0 24 24">
  <path stroke="#222" stroke-linecap="round" stroke-linejoin="round" d="M13.675 4.317c-.426-1.756-2.924-1.756-3.35 0a1.723 1.723 0 0 1-2.572 1.065c-1.544-.94-3.31.827-2.37 2.37a1.724 1.724 0 0 1-1.066 2.573c-1.756.426-1.756 2.924 0 3.35a1.725 1.725 0 0 1 1.065 2.572c-.94 1.544.827 3.31 2.37 2.37a1.724 1.724 0 0 1 2.573 1.066c.426 1.756 2.924 1.756 3.35 0a1.725 1.725 0 0 1 2.572-1.065c1.544.94 3.31-.827 2.37-2.37a1.725 1.725 0 0 1 1.066-2.573c1.756-.426 1.756-2.924 0-3.35a1.724 1.724 0 0 1-1.065-2.572c.94-1.544-.827-3.31-2.37-2.37a1.724 1.724 0 0 1-2.573-1.066z"/>
  <path stroke="#222" stroke-linecap="round" stroke-linejoin="round" d="M14.121 14.121A3 3 0 1 0 9.88 9.88a3 3 0 0 0 4.242 4.242z"/>
</symbol>
<symbol id="fold" viewBox="0 0 9 16">
  <path stroke="#FF7F23" stroke-linecap="round" stroke-linejoin="round" stroke-width="2" d="M8 15L1 8l7-7"/>
</symbol>
<symbol id="expand" viewBox="0 0 9 16">
  <path stroke="#FF7F23" stroke-linecap="round" stroke-linejoin="round" stroke-width="2" d="M1 1l7 7-7 7"/>
</symbol>
<symbol id="home" viewBox="0 0 24 24">
  <path d="M3 12L5 10M5 10L12 3L19 10M5 10V20C5 20.2652 5.10536 20.5196 5.29289 20.7071C5.48043 20.8946 5.73478 21 6 21H9M19 10L21 12M19 10V20C19 20.2652 18.8946 20.5196 18.7071 20.7071C18.5196 20.8946 18.2652 21 18 21H15M9 21C9.26522 21 9.51957 20.8946 9.70711 20.7071C9.89464 20.5196 10 20.2652 10 20V16C10 15.7348 10.1054 15.4804 10.2929 15.2929C10.4804 15.1054 10.7348 15 11 15H13C13.2652 15 13.5196 15.1054 13.7071 15.2929C13.8946 15.4804 14 15.7348 14 16V20C14 20.2652 14.1054 20.5196 14.2929 20.7071C14.4804 20.8946 14.7348 21 15 21M9 21H15" stroke="#222222" stroke-linecap="round" stroke-linejoin="round"/>
</symbol>
</svg>